<svg xmlns="http://www.w3.org/2000/svg" xmlns:xlink="http://www.w3.org/1999/xlink" width="1080" zoomAndPan="magnify" viewBox="0 0 810 809.999993" height="1080" preserveAspectRatio="xMidYMid meet" version="1.0"><path fill="#000000" d="M 405 0 C 181.332031 0 0 181.332031 0 405 C 0 628.695312 181.332031 810 405 810 C 628.667969 810 810 628.695312 810 405 C 810 181.332031 628.667969 0 405 0 Z M 666.683594 322.695312 L 376.214844 613.191406 C 370.273438 619.152344 360.609375 619.152344 354.722656 613.191406 L 311.785156 569.808594 C 305.875 563.867188 296.195312 554.152344 290.304688 548.140625 L 190.421875 443.085938 C 187.480469 440.15625 185.925781 436.03125 185.925781 432.054688 C 185.925781 428.179688 187.476562 424.414062 190.421875 421.472656 L 234.191406 382.015625 C 237.160156 378.984375 241.109375 377.492188 245.023438 377.492188 C 248.875 377.53125 252.714844 379.046875 255.65625 382.015625 L 354.746094 483.09375 C 360.648438 489.105469 370.300781 489.105469 376.238281 483.09375 L 602.332031 257.609375 C 608.296875 251.632812 617.886719 251.632812 623.800781 257.609375 L 666.734375 300.980469 C 672.648438 306.929688 672.648438 316.707031 666.683594 322.695312 Z M 666.683594 322.695312 " fill-opacity="1" fill-rule="nonzero"/></svg>