<svg xmlns="http://www.w3.org/2000/svg" xmlns:xlink="http://www.w3.org/1999/xlink" width="1080" zoomAndPan="magnify" viewBox="0 0 810 809.999993" height="1080" preserveAspectRatio="xMidYMid meet" version="1.0"><path fill="#000000" d="M 404.796875 0 C 181.035156 0 0 181.238281 0 405 C 0 628.761719 181.035156 810 404.796875 810 C 628.558594 810 810 628.761719 810 405 C 810 181.238281 628.558594 0 404.796875 0 Z M 405 729 C 225.988281 729 81 584.011719 81 405 C 81 225.988281 225.988281 81 405 81 C 584.011719 81 729 225.988281 729 405 C 729 584.011719 584.011719 729 405 729 Z M 405 729 " fill-opacity="1" fill-rule="nonzero"/><path fill="#000000" d="M 425.25 202.5 L 364.5 202.5 L 364.5 445.5 L 576.921875 573.074219 L 607.5 523.261719 L 425.25 415.125 Z M 425.25 202.5 " fill-opacity="1" fill-rule="nonzero"/></svg>