<svg xmlns="http://www.w3.org/2000/svg" xmlns:xlink="http://www.w3.org/1999/xlink" width="1080" zoomAndPan="magnify" viewBox="0 0 810 809.999993" height="1080" preserveAspectRatio="xMidYMid meet" version="1.0"><path fill="#000000" d="M 641.25 438.75 C 622.6875 438.75 607.5 453.9375 607.5 472.5 L 607.5 675 C 607.5 712.125 577.125 742.5 540 742.5 L 135 742.5 C 97.875 742.5 67.5 712.125 67.5 675 L 67.5 270 C 67.5 232.875 97.875 202.5 135 202.5 L 337.5 202.5 C 356.0625 202.5 371.25 187.3125 371.25 168.75 C 371.25 150.1875 356.0625 135 337.5 135 L 135 135 C 60.414062 135 0 195.414062 0 270 L 0 675 C 0 749.585938 60.414062 810 135 810 L 540 810 C 614.585938 810 675 749.585938 675 675 L 675 472.5 C 675 453.9375 659.8125 438.75 641.25 438.75 Z M 641.25 438.75 " fill-opacity="1" fill-rule="nonzero"/><path fill="#000000" d="M 776.25 0 L 438.75 0 C 420.1875 0 405 15.1875 405 33.75 C 405 52.3125 420.1875 67.5 438.75 67.5 L 694.914062 67.5 L 246.375 516.039062 C 233.210938 529.199219 233.210938 550.460938 246.375 563.625 C 253.125 570.375 261.5625 573.414062 270.335938 573.414062 C 279.113281 573.414062 287.550781 570.039062 294.300781 563.625 L 742.835938 115.085938 L 742.835938 371.25 C 742.835938 389.8125 758.023438 405 776.585938 405 C 795.148438 405 810.335938 389.8125 810.335938 371.25 L 810.335938 33.75 C 810.335938 15.1875 795.148438 0 776.585938 0 Z M 776.25 0 " fill-opacity="1" fill-rule="nonzero"/></svg>