<svg xmlns="http://www.w3.org/2000/svg" xmlns:xlink="http://www.w3.org/1999/xlink" width="1080" zoomAndPan="magnify" viewBox="0 0 810 809.999993" height="1080" preserveAspectRatio="xMidYMid meet" version="1.0"><defs><clipPath id="136c3dfa8d"><path d="M 24.300781 0 L 785.550781 0 L 785.550781 810 L 24.300781 810 Z M 24.300781 0 " clip-rule="nonzero"/></clipPath></defs><g clip-path="url(#136c3dfa8d)"><path fill="#000000" d="M 784.285156 155.765625 C 783.464844 153.789062 782.300781 152.046875 780.789062 150.535156 L 635.015625 4.734375 C 633.503906 3.222656 631.761719 2.058594 629.785156 1.234375 C 627.800781 0.410156 625.730469 0 623.582031 0.00390625 L 244.203125 0.00390625 C 242.992188 0.0078125 241.777344 0.0390625 240.566406 0.0976562 C 239.355469 0.160156 238.148438 0.25 236.941406 0.371094 C 235.734375 0.492188 234.53125 0.640625 233.332031 0.820312 C 232.132812 1 230.9375 1.207031 229.75 1.445312 C 228.558594 1.683594 227.375 1.949219 226.199219 2.246094 C 225.023438 2.542969 223.855469 2.867188 222.695312 3.21875 C 221.535156 3.574219 220.382812 3.953125 219.242188 4.363281 C 218.101562 4.773438 216.96875 5.210938 215.851562 5.675781 C 214.730469 6.140625 213.621094 6.632812 212.523438 7.152344 C 211.429688 7.671875 210.347656 8.214844 209.277344 8.789062 C 208.207031 9.359375 207.152344 9.960938 206.113281 10.582031 C 205.074219 11.207031 204.050781 11.855469 203.042969 12.53125 C 202.03125 13.203125 201.042969 13.902344 200.066406 14.625 C 199.09375 15.347656 198.136719 16.09375 197.199219 16.863281 C 196.261719 17.636719 195.34375 18.425781 194.445312 19.242188 C 193.546875 20.054688 192.671875 20.894531 191.8125 21.75 C 190.957031 22.609375 190.117188 23.488281 189.304688 24.386719 C 188.488281 25.285156 187.699219 26.203125 186.929688 27.140625 C 186.160156 28.078125 185.414062 29.03125 184.691406 30.007812 C 183.96875 30.980469 183.269531 31.972656 182.59375 32.980469 C 181.921875 33.988281 181.273438 35.011719 180.648438 36.054688 C 180.023438 37.09375 179.425781 38.148438 178.851562 39.21875 C 178.28125 40.289062 177.734375 41.371094 177.214844 42.46875 C 176.695312 43.5625 176.203125 44.671875 175.738281 45.792969 C 175.273438 46.914062 174.839844 48.042969 174.429688 49.183594 C 174.019531 50.328125 173.636719 51.476562 173.285156 52.640625 C 172.933594 53.800781 172.609375 54.96875 172.3125 56.144531 C 172.015625 57.320312 171.75 58.503906 171.511719 59.691406 C 171.273438 60.882812 171.066406 62.078125 170.886719 63.277344 C 170.707031 64.476562 170.558594 65.679688 170.4375 66.886719 C 170.316406 68.09375 170.226562 69.304688 170.164062 70.515625 C 170.105469 71.726562 170.074219 72.9375 170.070312 74.152344 L 170.070312 437.398438 L 67.207031 437.398438 C 65.800781 437.402344 64.398438 437.472656 63 437.609375 C 61.601562 437.75 60.214844 437.957031 58.835938 438.234375 C 57.457031 438.507812 56.097656 438.851562 54.753906 439.257812 C 53.410156 439.667969 52.085938 440.140625 50.789062 440.679688 C 49.492188 441.21875 48.222656 441.820312 46.984375 442.484375 C 45.746094 443.148438 44.542969 443.867188 43.375 444.648438 C 42.207031 445.429688 41.078125 446.269531 39.992188 447.160156 C 38.90625 448.050781 37.867188 448.996094 36.875 449.988281 C 35.882812 450.984375 34.9375 452.023438 34.046875 453.109375 C 33.15625 454.195312 32.320312 455.324219 31.539062 456.492188 C 30.757812 457.660156 30.039062 458.863281 29.375 460.101562 C 28.710938 461.34375 28.113281 462.609375 27.574219 463.910156 C 27.035156 465.207031 26.5625 466.527344 26.15625 467.875 C 25.746094 469.21875 25.40625 470.578125 25.128906 471.957031 C 24.855469 473.335938 24.648438 474.726562 24.507812 476.125 C 24.371094 477.523438 24.300781 478.921875 24.300781 480.328125 L 24.300781 653.667969 C 24.300781 655.074219 24.371094 656.472656 24.507812 657.871094 C 24.648438 659.269531 24.855469 660.660156 25.128906 662.039062 C 25.40625 663.417969 25.746094 664.777344 26.15625 666.121094 C 26.5625 667.46875 27.035156 668.789062 27.574219 670.085938 C 28.113281 671.382812 28.710938 672.652344 29.375 673.894531 C 30.039062 675.132812 30.757812 676.335938 31.539062 677.503906 C 32.320312 678.671875 33.15625 679.800781 34.046875 680.886719 C 34.941406 681.972656 35.882812 683.011719 36.875 684.007812 C 37.867188 685 38.90625 685.945312 39.992188 686.835938 C 41.078125 687.726562 42.207031 688.566406 43.375 689.347656 C 44.542969 690.128906 45.746094 690.847656 46.984375 691.511719 C 48.222656 692.175781 49.492188 692.777344 50.789062 693.316406 C 52.085938 693.855469 53.410156 694.328125 54.753906 694.738281 C 56.097656 695.144531 57.457031 695.488281 58.835938 695.761719 C 60.214844 696.039062 61.601562 696.246094 63 696.386719 C 64.398438 696.523438 65.800781 696.59375 67.207031 696.597656 L 170.070312 696.597656 L 170.070312 735.847656 C 170.074219 737.0625 170.105469 738.273438 170.164062 739.484375 C 170.226562 740.695312 170.316406 741.90625 170.4375 743.113281 C 170.558594 744.320312 170.707031 745.523438 170.886719 746.722656 C 171.066406 747.921875 171.273438 749.117188 171.511719 750.308594 C 171.75 751.496094 172.015625 752.679688 172.3125 753.855469 C 172.609375 755.03125 172.933594 756.199219 173.285156 757.363281 C 173.636719 758.523438 174.019531 759.671875 174.429688 760.816406 C 174.839844 761.957031 175.277344 763.085938 175.742188 764.207031 C 176.207031 765.328125 176.695312 766.4375 177.214844 767.53125 C 177.734375 768.628906 178.28125 769.710938 178.851562 770.78125 C 179.425781 771.851562 180.023438 772.90625 180.648438 773.945312 C 181.273438 774.988281 181.921875 776.011719 182.59375 777.019531 C 183.269531 778.027344 183.96875 779.019531 184.691406 779.992188 C 185.414062 780.96875 186.160156 781.921875 186.929688 782.859375 C 187.699219 783.796875 188.488281 784.714844 189.304688 785.613281 C 190.117188 786.515625 190.957031 787.390625 191.8125 788.25 C 192.671875 789.109375 193.546875 789.945312 194.445312 790.757812 C 195.34375 791.574219 196.261719 792.363281 197.199219 793.136719 C 198.136719 793.90625 199.09375 794.652344 200.066406 795.375 C 201.042969 796.097656 202.03125 796.796875 203.042969 797.46875 C 204.050781 798.144531 205.074219 798.792969 206.113281 799.417969 C 207.152344 800.039062 208.207031 800.640625 209.277344 801.210938 C 210.347656 801.785156 211.429688 802.328125 212.523438 802.847656 C 213.621094 803.367188 214.730469 803.859375 215.851562 804.324219 C 216.96875 804.789062 218.101562 805.226562 219.242188 805.636719 C 220.382812 806.046875 221.535156 806.425781 222.695312 806.78125 C 223.855469 807.132812 225.023438 807.457031 226.199219 807.753906 C 227.375 808.050781 228.558594 808.316406 229.75 808.554688 C 230.9375 808.792969 232.132812 809 233.332031 809.179688 C 234.53125 809.359375 235.734375 809.507812 236.941406 809.628906 C 238.148438 809.75 239.355469 809.839844 240.566406 809.902344 C 241.777344 809.960938 242.992188 809.992188 244.203125 809.996094 L 711.417969 809.996094 C 712.628906 809.992188 713.84375 809.960938 715.054688 809.902344 C 716.265625 809.839844 717.472656 809.75 718.679688 809.628906 C 719.886719 809.507812 721.089844 809.359375 722.289062 809.179688 C 723.488281 809 724.683594 808.792969 725.875 808.554688 C 727.0625 808.316406 728.246094 808.050781 729.421875 807.753906 C 730.597656 807.457031 731.765625 807.132812 732.925781 806.78125 C 734.085938 806.425781 735.238281 806.046875 736.378906 805.636719 C 737.519531 805.226562 738.652344 804.789062 739.773438 804.324219 C 740.890625 803.859375 742 803.367188 743.097656 802.847656 C 744.191406 802.328125 745.273438 801.785156 746.34375 801.210938 C 747.414062 800.640625 748.46875 800.039062 749.507812 799.417969 C 750.546875 798.792969 751.570312 798.144531 752.582031 797.46875 C 753.589844 796.796875 754.578125 796.097656 755.554688 795.375 C 756.527344 794.652344 757.484375 793.90625 758.421875 793.136719 C 759.359375 792.363281 760.277344 791.574219 761.175781 790.757812 C 762.074219 789.945312 762.949219 789.109375 763.808594 788.25 C 764.667969 787.390625 765.503906 786.511719 766.316406 785.613281 C 767.132812 784.714844 767.921875 783.796875 768.691406 782.859375 C 769.460938 781.921875 770.207031 780.96875 770.929688 779.992188 C 771.652344 779.019531 772.351562 778.027344 773.027344 777.019531 C 773.699219 776.011719 774.351562 774.988281 774.972656 773.945312 C 775.597656 772.90625 776.195312 771.851562 776.769531 770.78125 C 777.339844 769.710938 777.886719 768.628906 778.40625 767.53125 C 778.925781 766.4375 779.417969 765.328125 779.882812 764.207031 C 780.347656 763.085938 780.78125 761.957031 781.191406 760.816406 C 781.601562 759.671875 781.984375 758.523438 782.335938 757.363281 C 782.6875 756.199219 783.011719 755.03125 783.308594 753.855469 C 783.605469 752.679688 783.871094 751.496094 784.109375 750.308594 C 784.347656 749.117188 784.554688 747.921875 784.734375 746.722656 C 784.914062 745.523438 785.0625 744.320312 785.183594 743.113281 C 785.304688 741.90625 785.394531 740.695312 785.457031 739.484375 C 785.515625 738.273438 785.546875 737.0625 785.550781 735.847656 L 785.550781 162.003906 C 785.546875 159.839844 785.128906 157.761719 784.285156 155.765625 Z M 639.777344 55.328125 L 730.253906 145.804688 L 639.777344 145.804688 Z M 56.695312 653.667969 L 56.695312 480.328125 C 56.695312 479.636719 56.761719 478.953125 56.894531 478.277344 C 57.03125 477.597656 57.230469 476.941406 57.492188 476.304688 C 57.757812 475.664062 58.082031 475.058594 58.464844 474.484375 C 58.847656 473.910156 59.285156 473.378906 59.769531 472.890625 C 60.257812 472.398438 60.789062 471.964844 61.363281 471.578125 C 61.9375 471.195312 62.542969 470.871094 63.179688 470.605469 C 63.820312 470.339844 64.476562 470.140625 65.152344 470.003906 C 65.832031 469.867188 66.515625 469.800781 67.207031 469.800781 L 499.660156 469.800781 C 500.351562 469.800781 501.035156 469.867188 501.710938 470.003906 C 502.390625 470.140625 503.046875 470.339844 503.683594 470.605469 C 504.320312 470.871094 504.925781 471.195312 505.5 471.578125 C 506.074219 471.964844 506.605469 472.398438 507.09375 472.890625 C 507.582031 473.378906 508.019531 473.910156 508.402344 474.484375 C 508.785156 475.058594 509.109375 475.664062 509.371094 476.304688 C 509.636719 476.941406 509.835938 477.597656 509.96875 478.277344 C 510.105469 478.953125 510.171875 479.636719 510.171875 480.328125 L 510.171875 653.667969 C 510.171875 654.359375 510.105469 655.042969 509.96875 655.71875 C 509.835938 656.398438 509.636719 657.054688 509.371094 657.691406 C 509.109375 658.332031 508.785156 658.9375 508.402344 659.511719 C 508.015625 660.085938 507.582031 660.617188 507.09375 661.105469 C 506.605469 661.597656 506.074219 662.03125 505.5 662.417969 C 504.925781 662.800781 504.320312 663.125 503.683594 663.390625 C 503.046875 663.65625 502.390625 663.855469 501.710938 663.992188 C 501.035156 664.128906 500.351562 664.195312 499.660156 664.195312 L 67.207031 664.195312 C 66.515625 664.195312 65.832031 664.128906 65.152344 663.992188 C 64.476562 663.855469 63.820312 663.65625 63.179688 663.390625 C 62.542969 663.125 61.9375 662.800781 61.363281 662.417969 C 60.789062 662.03125 60.257812 661.59375 59.769531 661.105469 C 59.285156 660.617188 58.847656 660.085938 58.464844 659.511719 C 58.082031 658.9375 57.757812 658.332031 57.492188 657.691406 C 57.230469 657.054688 57.03125 656.398438 56.894531 655.71875 C 56.761719 655.042969 56.695312 654.359375 56.695312 653.667969 Z M 711.417969 777.59375 L 244.203125 777.59375 C 242.835938 777.59375 241.472656 777.523438 240.113281 777.390625 C 238.753906 777.253906 237.40625 777.054688 236.066406 776.785156 C 234.722656 776.515625 233.402344 776.183594 232.09375 775.785156 C 230.785156 775.390625 229.5 774.929688 228.238281 774.40625 C 226.976562 773.878906 225.742188 773.296875 224.539062 772.652344 C 223.332031 772.007812 222.164062 771.304688 221.027344 770.546875 C 219.890625 769.785156 218.792969 768.972656 217.738281 768.105469 C 216.683594 767.238281 215.671875 766.320312 214.703125 765.355469 C 213.738281 764.386719 212.820312 763.375 211.953125 762.320312 C 211.085938 761.261719 210.273438 760.167969 209.515625 759.03125 C 208.753906 757.894531 208.050781 756.722656 207.40625 755.519531 C 206.761719 754.3125 206.179688 753.078125 205.65625 751.816406 C 205.132812 750.554688 204.671875 749.269531 204.273438 747.960938 C 203.875 746.652344 203.542969 745.328125 203.273438 743.988281 C 203.007812 742.648438 202.804688 741.300781 202.671875 739.9375 C 202.535156 738.578125 202.464844 737.214844 202.464844 735.847656 L 202.464844 696.597656 L 499.691406 696.597656 C 501.097656 696.59375 502.5 696.523438 503.898438 696.386719 C 505.296875 696.246094 506.683594 696.039062 508.0625 695.761719 C 509.4375 695.488281 510.800781 695.144531 512.144531 694.738281 C 513.488281 694.328125 514.808594 693.855469 516.109375 693.316406 C 517.40625 692.777344 518.675781 692.175781 519.914062 691.511719 C 521.152344 690.847656 522.355469 690.128906 523.523438 689.347656 C 524.691406 688.566406 525.816406 687.726562 526.902344 686.835938 C 527.988281 685.945312 529.03125 685 530.023438 684.007812 C 531.015625 683.011719 531.957031 681.972656 532.851562 680.886719 C 533.742188 679.800781 534.578125 678.671875 535.359375 677.503906 C 536.136719 676.335938 536.859375 675.132812 537.523438 673.894531 C 538.183594 672.652344 538.785156 671.382812 539.324219 670.085938 C 539.863281 668.789062 540.335938 667.46875 540.742188 666.121094 C 541.152344 664.777344 541.492188 663.417969 541.769531 662.039062 C 542.042969 660.660156 542.25 659.269531 542.386719 657.871094 C 542.527344 656.472656 542.597656 655.070312 542.597656 653.667969 L 542.597656 480.328125 C 542.597656 478.921875 542.527344 477.523438 542.386719 476.125 C 542.25 474.726562 542.042969 473.335938 541.769531 471.957031 C 541.492188 470.578125 541.152344 469.21875 540.742188 467.875 C 540.335938 466.527344 539.863281 465.207031 539.324219 463.910156 C 538.785156 462.609375 538.183594 461.34375 537.523438 460.101562 C 536.859375 458.863281 536.136719 457.660156 535.359375 456.492188 C 534.578125 455.324219 533.742188 454.195312 532.851562 453.109375 C 531.957031 452.023438 531.015625 450.984375 530.023438 449.988281 C 529.03125 448.996094 527.988281 448.050781 526.902344 447.160156 C 525.816406 446.269531 524.691406 445.429688 523.523438 444.648438 C 522.355469 443.867188 521.152344 443.148438 519.914062 442.484375 C 518.675781 441.820312 517.40625 441.21875 516.109375 440.679688 C 514.808594 440.140625 513.488281 439.667969 512.144531 439.257812 C 510.800781 438.851562 509.4375 438.507812 508.0625 438.234375 C 506.683594 437.957031 505.296875 437.75 503.898438 437.609375 C 502.5 437.472656 501.097656 437.402344 499.691406 437.398438 L 202.464844 437.398438 L 202.464844 74.152344 C 202.464844 72.785156 202.535156 71.421875 202.671875 70.0625 C 202.804688 68.699219 203.007812 67.351562 203.273438 66.011719 C 203.542969 64.671875 203.875 63.347656 204.273438 62.039062 C 204.671875 60.730469 205.132812 59.445312 205.65625 58.183594 C 206.179688 56.921875 206.761719 55.6875 207.40625 54.480469 C 208.050781 53.277344 208.753906 52.105469 209.515625 50.96875 C 210.273438 49.832031 211.085938 48.738281 211.953125 47.679688 C 212.820312 46.625 213.738281 45.613281 214.703125 44.644531 C 215.671875 43.679688 216.683594 42.761719 217.738281 41.894531 C 218.792969 41.027344 219.890625 40.214844 221.027344 39.457031 C 222.164062 38.695312 223.332031 37.992188 224.539062 37.347656 C 225.742188 36.703125 226.976562 36.121094 228.238281 35.59375 C 229.5 35.070312 230.785156 34.609375 232.09375 34.214844 C 233.402344 33.816406 234.722656 33.484375 236.066406 33.214844 C 237.40625 32.945312 238.753906 32.746094 240.113281 32.609375 C 241.472656 32.476562 242.835938 32.40625 244.203125 32.40625 L 607.386719 32.40625 L 607.386719 162.003906 C 607.386719 162.535156 607.410156 163.0625 607.464844 163.589844 C 607.515625 164.117188 607.59375 164.644531 607.695312 165.164062 C 607.800781 165.683594 607.929688 166.199219 608.082031 166.707031 C 608.238281 167.214844 608.414062 167.710938 608.617188 168.203125 C 608.820312 168.691406 609.046875 169.171875 609.296875 169.640625 C 609.546875 170.105469 609.820312 170.5625 610.113281 171.003906 C 610.410156 171.445312 610.726562 171.871094 611.0625 172.28125 C 611.398438 172.691406 611.753906 173.082031 612.128906 173.457031 C 612.503906 173.832031 612.898438 174.1875 613.308594 174.527344 C 613.714844 174.863281 614.140625 175.179688 614.582031 175.472656 C 615.023438 175.765625 615.480469 176.039062 615.945312 176.289062 C 616.414062 176.539062 616.894531 176.765625 617.382812 176.96875 C 617.875 177.171875 618.371094 177.351562 618.878906 177.503906 C 619.386719 177.660156 619.902344 177.789062 620.421875 177.890625 C 620.941406 177.996094 621.464844 178.074219 621.996094 178.125 C 622.523438 178.175781 623.050781 178.203125 623.582031 178.203125 L 753.15625 178.203125 L 753.15625 735.847656 C 753.15625 737.214844 753.085938 738.578125 752.949219 739.9375 C 752.816406 741.300781 752.613281 742.648438 752.347656 743.988281 C 752.078125 745.328125 751.746094 746.652344 751.347656 747.960938 C 750.949219 749.269531 750.488281 750.554688 749.964844 751.816406 C 749.441406 753.078125 748.859375 754.3125 748.214844 755.519531 C 747.570312 756.722656 746.867188 757.894531 746.105469 759.03125 C 745.347656 760.167969 744.535156 761.261719 743.667969 762.320312 C 742.800781 763.375 741.882812 764.386719 740.917969 765.355469 C 739.949219 766.320312 738.9375 767.238281 737.882812 768.105469 C 736.828125 768.972656 735.730469 769.785156 734.59375 770.542969 C 733.457031 771.304688 732.289062 772.007812 731.082031 772.652344 C 729.878906 773.296875 728.644531 773.878906 727.382812 774.40625 C 726.121094 774.929688 724.835938 775.390625 723.527344 775.785156 C 722.21875 776.183594 720.898438 776.515625 719.558594 776.785156 C 718.214844 777.054688 716.867188 777.253906 715.507812 777.390625 C 714.148438 777.523438 712.785156 777.59375 711.417969 777.59375 Z M 711.417969 777.59375 " fill-opacity="1" fill-rule="nonzero"/></g><path fill="#000000" d="M 283.449219 210.601562 L 510.203125 210.601562 C 510.734375 210.601562 511.265625 210.578125 511.792969 210.523438 C 512.320312 210.472656 512.84375 210.394531 513.363281 210.292969 C 513.882812 210.1875 514.398438 210.058594 514.90625 209.90625 C 515.414062 209.75 515.914062 209.574219 516.402344 209.371094 C 516.890625 209.167969 517.371094 208.941406 517.839844 208.691406 C 518.308594 208.4375 518.761719 208.167969 519.203125 207.871094 C 519.644531 207.578125 520.070312 207.261719 520.480469 206.925781 C 520.890625 206.589844 521.28125 206.234375 521.65625 205.859375 C 522.03125 205.484375 522.386719 205.089844 522.722656 204.679688 C 523.0625 204.269531 523.375 203.84375 523.671875 203.402344 C 523.964844 202.960938 524.238281 202.507812 524.488281 202.039062 C 524.738281 201.570312 524.964844 201.09375 525.167969 200.601562 C 525.371094 200.113281 525.550781 199.613281 525.703125 199.105469 C 525.859375 198.597656 525.988281 198.082031 526.089844 197.5625 C 526.191406 197.042969 526.269531 196.519531 526.324219 195.992188 C 526.375 195.460938 526.402344 194.933594 526.402344 194.402344 C 526.402344 193.871094 526.375 193.34375 526.324219 192.816406 C 526.269531 192.285156 526.191406 191.761719 526.089844 191.242188 C 525.988281 190.722656 525.859375 190.207031 525.703125 189.699219 C 525.550781 189.191406 525.371094 188.691406 525.167969 188.203125 C 524.964844 187.714844 524.738281 187.234375 524.488281 186.765625 C 524.238281 186.296875 523.964844 185.84375 523.671875 185.402344 C 523.375 184.960938 523.0625 184.535156 522.722656 184.125 C 522.386719 183.714844 522.03125 183.324219 521.65625 182.949219 C 521.28125 182.574219 520.890625 182.214844 520.480469 181.878906 C 520.070312 181.542969 519.644531 181.226562 519.203125 180.933594 C 518.761719 180.636719 518.308594 180.367188 517.839844 180.117188 C 517.371094 179.867188 516.890625 179.640625 516.402344 179.4375 C 515.914062 179.234375 515.414062 179.054688 514.90625 178.898438 C 514.398438 178.746094 513.882812 178.617188 513.363281 178.515625 C 512.84375 178.410156 512.320312 178.332031 511.792969 178.28125 C 511.265625 178.230469 510.734375 178.203125 510.203125 178.203125 L 283.449219 178.203125 C 282.917969 178.203125 282.390625 178.230469 281.863281 178.28125 C 281.332031 178.332031 280.808594 178.410156 280.289062 178.515625 C 279.769531 178.617188 279.253906 178.746094 278.746094 178.898438 C 278.238281 179.054688 277.742188 179.234375 277.25 179.4375 C 276.761719 179.640625 276.28125 179.867188 275.8125 180.117188 C 275.347656 180.367188 274.890625 180.636719 274.449219 180.933594 C 274.007812 181.226562 273.582031 181.542969 273.171875 181.878906 C 272.765625 182.214844 272.371094 182.574219 271.996094 182.949219 C 271.621094 183.324219 271.265625 183.714844 270.929688 184.125 C 270.59375 184.535156 270.277344 184.960938 269.980469 185.402344 C 269.6875 185.84375 269.414062 186.296875 269.164062 186.765625 C 268.914062 187.234375 268.6875 187.714844 268.484375 188.203125 C 268.28125 188.691406 268.101562 189.191406 267.949219 189.699219 C 267.796875 190.207031 267.667969 190.722656 267.5625 191.242188 C 267.460938 191.761719 267.382812 192.285156 267.332031 192.816406 C 267.277344 193.34375 267.253906 193.871094 267.253906 194.402344 C 267.253906 194.933594 267.277344 195.460938 267.332031 195.992188 C 267.382812 196.519531 267.460938 197.042969 267.5625 197.5625 C 267.667969 198.082031 267.796875 198.597656 267.949219 199.105469 C 268.101562 199.613281 268.28125 200.113281 268.484375 200.601562 C 268.6875 201.09375 268.914062 201.570312 269.164062 202.039062 C 269.414062 202.507812 269.6875 202.960938 269.980469 203.402344 C 270.277344 203.84375 270.59375 204.269531 270.929688 204.679688 C 271.265625 205.089844 271.621094 205.484375 271.996094 205.859375 C 272.371094 206.234375 272.765625 206.589844 273.171875 206.925781 C 273.582031 207.261719 274.007812 207.578125 274.449219 207.871094 C 274.890625 208.167969 275.347656 208.4375 275.8125 208.691406 C 276.28125 208.941406 276.761719 209.167969 277.25 209.371094 C 277.742188 209.574219 278.238281 209.75 278.746094 209.90625 C 279.253906 210.058594 279.769531 210.1875 280.289062 210.292969 C 280.808594 210.394531 281.332031 210.472656 281.863281 210.523438 C 282.390625 210.578125 282.917969 210.601562 283.449219 210.601562 Z M 283.449219 210.601562 " fill-opacity="1" fill-rule="nonzero"/><path fill="#000000" d="M 283.449219 129.601562 L 510.203125 129.601562 C 510.734375 129.601562 511.265625 129.578125 511.792969 129.523438 C 512.320312 129.472656 512.84375 129.394531 513.363281 129.292969 C 513.882812 129.1875 514.398438 129.058594 514.90625 128.90625 C 515.414062 128.75 515.914062 128.574219 516.402344 128.371094 C 516.890625 128.167969 517.371094 127.941406 517.839844 127.691406 C 518.308594 127.441406 518.761719 127.167969 519.203125 126.875 C 519.644531 126.578125 520.070312 126.261719 520.480469 125.925781 C 520.890625 125.589844 521.28125 125.234375 521.65625 124.859375 C 522.03125 124.484375 522.386719 124.089844 522.722656 123.679688 C 523.0625 123.269531 523.375 122.84375 523.671875 122.402344 C 523.964844 121.960938 524.238281 121.507812 524.488281 121.039062 C 524.738281 120.570312 524.964844 120.09375 525.167969 119.601562 C 525.371094 119.113281 525.550781 118.613281 525.703125 118.105469 C 525.859375 117.597656 525.988281 117.085938 526.089844 116.5625 C 526.191406 116.042969 526.269531 115.519531 526.324219 114.992188 C 526.375 114.464844 526.402344 113.933594 526.402344 113.402344 C 526.402344 112.871094 526.375 112.34375 526.324219 111.816406 C 526.269531 111.289062 526.191406 110.761719 526.089844 110.242188 C 525.988281 109.722656 525.859375 109.207031 525.703125 108.699219 C 525.550781 108.191406 525.371094 107.695312 525.167969 107.203125 C 524.964844 106.714844 524.738281 106.234375 524.488281 105.765625 C 524.238281 105.300781 523.964844 104.84375 523.671875 104.402344 C 523.375 103.960938 523.0625 103.535156 522.722656 103.125 C 522.386719 102.714844 522.03125 102.324219 521.65625 101.949219 C 521.28125 101.574219 520.890625 101.21875 520.480469 100.882812 C 520.070312 100.542969 519.644531 100.230469 519.203125 99.933594 C 518.761719 99.640625 518.308594 99.367188 517.839844 99.117188 C 517.371094 98.867188 516.890625 98.640625 516.402344 98.4375 C 515.914062 98.234375 515.414062 98.054688 514.90625 97.902344 C 514.398438 97.746094 513.882812 97.617188 513.363281 97.515625 C 512.84375 97.410156 512.320312 97.332031 511.792969 97.28125 C 511.265625 97.230469 510.734375 97.203125 510.203125 97.203125 L 283.449219 97.203125 C 282.917969 97.203125 282.390625 97.230469 281.863281 97.28125 C 281.332031 97.332031 280.808594 97.410156 280.289062 97.515625 C 279.769531 97.617188 279.253906 97.746094 278.746094 97.902344 C 278.238281 98.054688 277.742188 98.234375 277.25 98.4375 C 276.761719 98.640625 276.28125 98.867188 275.8125 99.117188 C 275.347656 99.367188 274.890625 99.640625 274.449219 99.933594 C 274.007812 100.230469 273.582031 100.542969 273.171875 100.882812 C 272.765625 101.21875 272.371094 101.574219 271.996094 101.949219 C 271.621094 102.324219 271.265625 102.714844 270.929688 103.125 C 270.59375 103.535156 270.277344 103.960938 269.980469 104.402344 C 269.6875 104.84375 269.414062 105.300781 269.164062 105.765625 C 268.914062 106.234375 268.6875 106.714844 268.484375 107.203125 C 268.28125 107.695312 268.101562 108.191406 267.949219 108.699219 C 267.796875 109.207031 267.667969 109.722656 267.5625 110.242188 C 267.460938 110.761719 267.382812 111.289062 267.332031 111.816406 C 267.277344 112.34375 267.253906 112.871094 267.253906 113.402344 C 267.253906 113.933594 267.277344 114.464844 267.332031 114.992188 C 267.382812 115.519531 267.460938 116.042969 267.5625 116.5625 C 267.667969 117.085938 267.796875 117.597656 267.949219 118.105469 C 268.101562 118.613281 268.28125 119.113281 268.484375 119.601562 C 268.6875 120.09375 268.914062 120.570312 269.164062 121.039062 C 269.414062 121.507812 269.6875 121.960938 269.980469 122.402344 C 270.277344 122.84375 270.59375 123.269531 270.929688 123.679688 C 271.265625 124.089844 271.621094 124.484375 271.996094 124.859375 C 272.371094 125.234375 272.765625 125.589844 273.171875 125.925781 C 273.582031 126.261719 274.007812 126.578125 274.449219 126.875 C 274.890625 127.167969 275.347656 127.441406 275.8125 127.691406 C 276.28125 127.941406 276.761719 128.167969 277.25 128.371094 C 277.742188 128.574219 278.238281 128.75 278.746094 128.90625 C 279.253906 129.058594 279.769531 129.1875 280.289062 129.292969 C 280.808594 129.394531 281.332031 129.472656 281.863281 129.527344 C 282.390625 129.578125 282.917969 129.601562 283.449219 129.601562 Z M 283.449219 129.601562 " fill-opacity="1" fill-rule="nonzero"/><path fill="#000000" d="M 672.171875 259.203125 L 283.449219 259.203125 C 282.917969 259.203125 282.390625 259.226562 281.863281 259.28125 C 281.332031 259.332031 280.808594 259.410156 280.289062 259.511719 C 279.769531 259.617188 279.253906 259.746094 278.746094 259.898438 C 278.238281 260.054688 277.742188 260.230469 277.25 260.433594 C 276.761719 260.636719 276.28125 260.863281 275.8125 261.113281 C 275.347656 261.363281 274.890625 261.636719 274.449219 261.933594 C 274.007812 262.226562 273.582031 262.542969 273.171875 262.878906 C 272.765625 263.214844 272.371094 263.570312 271.996094 263.945312 C 271.621094 264.320312 271.265625 264.714844 270.929688 265.125 C 270.59375 265.535156 270.277344 265.960938 269.980469 266.402344 C 269.6875 266.84375 269.414062 267.296875 269.164062 267.765625 C 268.914062 268.234375 268.6875 268.710938 268.484375 269.203125 C 268.28125 269.691406 268.101562 270.191406 267.949219 270.699219 C 267.796875 271.207031 267.667969 271.722656 267.5625 272.242188 C 267.460938 272.761719 267.382812 273.285156 267.332031 273.8125 C 267.277344 274.339844 267.253906 274.871094 267.253906 275.402344 C 267.253906 275.933594 267.277344 276.460938 267.332031 276.988281 C 267.382812 277.515625 267.460938 278.042969 267.5625 278.5625 C 267.667969 279.082031 267.796875 279.597656 267.949219 280.105469 C 268.101562 280.613281 268.28125 281.109375 268.484375 281.601562 C 268.6875 282.089844 268.914062 282.570312 269.164062 283.039062 C 269.414062 283.507812 269.6875 283.960938 269.980469 284.402344 C 270.277344 284.84375 270.59375 285.269531 270.929688 285.679688 C 271.265625 286.089844 271.621094 286.480469 271.996094 286.855469 C 272.371094 287.230469 272.765625 287.585938 273.171875 287.925781 C 273.582031 288.261719 274.007812 288.578125 274.449219 288.871094 C 274.890625 289.164062 275.347656 289.4375 275.8125 289.6875 C 276.28125 289.9375 276.761719 290.164062 277.25 290.367188 C 277.742188 290.570312 278.238281 290.75 278.746094 290.902344 C 279.253906 291.058594 279.769531 291.1875 280.289062 291.289062 C 280.808594 291.394531 281.332031 291.472656 281.863281 291.523438 C 282.390625 291.574219 282.917969 291.601562 283.449219 291.601562 L 672.171875 291.601562 C 672.703125 291.601562 673.230469 291.574219 673.761719 291.523438 C 674.289062 291.472656 674.8125 291.394531 675.332031 291.289062 C 675.851562 291.1875 676.367188 291.058594 676.875 290.902344 C 677.382812 290.75 677.878906 290.570312 678.371094 290.367188 C 678.859375 290.164062 679.339844 289.9375 679.808594 289.6875 C 680.273438 289.4375 680.730469 289.164062 681.171875 288.871094 C 681.613281 288.578125 682.039062 288.261719 682.449219 287.925781 C 682.859375 287.585938 683.25 287.230469 683.625 286.855469 C 684 286.480469 684.355469 286.089844 684.691406 285.679688 C 685.027344 285.269531 685.34375 284.84375 685.640625 284.402344 C 685.933594 283.960938 686.207031 283.507812 686.457031 283.039062 C 686.707031 282.570312 686.933594 282.089844 687.136719 281.601562 C 687.339844 281.109375 687.519531 280.613281 687.671875 280.105469 C 687.824219 279.597656 687.953125 279.082031 688.058594 278.5625 C 688.160156 278.042969 688.238281 277.515625 688.292969 276.988281 C 688.34375 276.460938 688.371094 275.933594 688.367188 275.402344 C 688.371094 274.871094 688.34375 274.339844 688.292969 273.8125 C 688.238281 273.285156 688.160156 272.761719 688.058594 272.242188 C 687.953125 271.722656 687.824219 271.207031 687.671875 270.699219 C 687.519531 270.191406 687.339844 269.691406 687.136719 269.203125 C 686.933594 268.710938 686.707031 268.234375 686.457031 267.765625 C 686.207031 267.296875 685.933594 266.84375 685.640625 266.402344 C 685.34375 265.960938 685.027344 265.535156 684.691406 265.125 C 684.355469 264.714844 684 264.320312 683.625 263.945312 C 683.25 263.570312 682.859375 263.214844 682.449219 262.878906 C 682.039062 262.542969 681.613281 262.226562 681.171875 261.933594 C 680.730469 261.636719 680.273438 261.363281 679.808594 261.113281 C 679.339844 260.863281 678.859375 260.636719 678.371094 260.433594 C 677.878906 260.230469 677.382812 260.054688 676.875 259.898438 C 676.367188 259.746094 675.851562 259.617188 675.332031 259.511719 C 674.8125 259.410156 674.289062 259.332031 673.761719 259.28125 C 673.230469 259.226562 672.703125 259.203125 672.171875 259.203125 Z M 672.171875 259.203125 " fill-opacity="1" fill-rule="nonzero"/><path fill="#000000" d="M 672.171875 340.199219 L 283.449219 340.199219 C 282.917969 340.199219 282.390625 340.226562 281.863281 340.277344 C 281.332031 340.332031 280.808594 340.410156 280.289062 340.511719 C 279.769531 340.617188 279.253906 340.746094 278.746094 340.898438 C 278.238281 341.050781 277.742188 341.230469 277.25 341.433594 C 276.761719 341.636719 276.28125 341.863281 275.8125 342.113281 C 275.347656 342.363281 274.890625 342.636719 274.449219 342.929688 C 274.007812 343.226562 273.582031 343.542969 273.171875 343.878906 C 272.765625 344.214844 272.371094 344.570312 271.996094 344.945312 C 271.621094 345.320312 271.265625 345.714844 270.929688 346.125 C 270.59375 346.535156 270.277344 346.960938 269.980469 347.402344 C 269.6875 347.839844 269.414062 348.296875 269.164062 348.765625 C 268.914062 349.230469 268.6875 349.710938 268.484375 350.199219 C 268.28125 350.691406 268.101562 351.191406 267.949219 351.699219 C 267.796875 352.207031 267.667969 352.71875 267.5625 353.238281 C 267.460938 353.761719 267.382812 354.285156 267.332031 354.8125 C 267.277344 355.339844 267.253906 355.871094 267.253906 356.402344 C 267.253906 356.929688 267.277344 357.460938 267.332031 357.988281 C 267.382812 358.515625 267.460938 359.039062 267.5625 359.5625 C 267.667969 360.082031 267.796875 360.59375 267.949219 361.101562 C 268.101562 361.609375 268.28125 362.109375 268.484375 362.601562 C 268.6875 363.089844 268.914062 363.570312 269.164062 364.035156 C 269.414062 364.503906 269.6875 364.960938 269.980469 365.402344 C 270.277344 365.84375 270.59375 366.265625 270.929688 366.675781 C 271.265625 367.085938 271.621094 367.480469 271.996094 367.855469 C 272.371094 368.230469 272.765625 368.585938 273.171875 368.921875 C 273.582031 369.261719 274.007812 369.574219 274.449219 369.871094 C 274.890625 370.164062 275.347656 370.4375 275.8125 370.6875 C 276.28125 370.9375 276.761719 371.164062 277.25 371.367188 C 277.742188 371.570312 278.238281 371.75 278.746094 371.902344 C 279.253906 372.058594 279.769531 372.1875 280.289062 372.289062 C 280.808594 372.394531 281.332031 372.46875 281.863281 372.523438 C 282.390625 372.574219 282.917969 372.601562 283.449219 372.601562 L 672.171875 372.601562 C 672.703125 372.601562 673.230469 372.574219 673.761719 372.523438 C 674.289062 372.46875 674.8125 372.394531 675.332031 372.289062 C 675.851562 372.1875 676.367188 372.058594 676.875 371.902344 C 677.382812 371.75 677.878906 371.570312 678.371094 371.367188 C 678.859375 371.164062 679.339844 370.9375 679.808594 370.6875 C 680.273438 370.4375 680.730469 370.164062 681.171875 369.871094 C 681.613281 369.574219 682.039062 369.261719 682.449219 368.921875 C 682.859375 368.585938 683.25 368.230469 683.625 367.855469 C 684 367.480469 684.355469 367.085938 684.691406 366.675781 C 685.027344 366.265625 685.34375 365.84375 685.640625 365.402344 C 685.933594 364.960938 686.207031 364.503906 686.457031 364.035156 C 686.707031 363.570312 686.933594 363.089844 687.136719 362.601562 C 687.339844 362.109375 687.519531 361.609375 687.671875 361.101562 C 687.824219 360.59375 687.953125 360.082031 688.058594 359.5625 C 688.160156 359.039062 688.238281 358.515625 688.292969 357.988281 C 688.34375 357.460938 688.371094 356.929688 688.367188 356.402344 C 688.371094 355.871094 688.34375 355.339844 688.292969 354.8125 C 688.238281 354.285156 688.160156 353.761719 688.058594 353.238281 C 687.953125 352.71875 687.824219 352.207031 687.671875 351.699219 C 687.519531 351.191406 687.339844 350.691406 687.136719 350.199219 C 686.933594 349.710938 686.707031 349.230469 686.457031 348.765625 C 686.207031 348.296875 685.933594 347.839844 685.640625 347.402344 C 685.34375 346.960938 685.027344 346.535156 684.691406 346.125 C 684.355469 345.714844 684 345.320312 683.625 344.945312 C 683.25 344.570312 682.859375 344.214844 682.449219 343.878906 C 682.039062 343.542969 681.613281 343.226562 681.171875 342.929688 C 680.730469 342.636719 680.273438 342.363281 679.808594 342.113281 C 679.339844 341.863281 678.859375 341.636719 678.371094 341.433594 C 677.878906 341.230469 677.382812 341.050781 676.875 340.898438 C 676.367188 340.746094 675.851562 340.617188 675.332031 340.511719 C 674.8125 340.410156 674.289062 340.332031 673.761719 340.277344 C 673.230469 340.226562 672.703125 340.199219 672.171875 340.199219 Z M 672.171875 340.199219 " fill-opacity="1" fill-rule="nonzero"/><path fill="#000000" d="M 202.464844 518.398438 C 202.464844 517.867188 202.4375 517.339844 202.386719 516.8125 C 202.335938 516.28125 202.257812 515.757812 202.152344 515.238281 C 202.050781 514.71875 201.921875 514.203125 201.765625 513.695312 C 201.613281 513.1875 201.433594 512.6875 201.230469 512.199219 C 201.027344 511.707031 200.800781 511.230469 200.550781 510.761719 C 200.300781 510.292969 200.03125 509.839844 199.734375 509.398438 C 199.441406 508.957031 199.125 508.53125 198.789062 508.121094 C 198.453125 507.710938 198.097656 507.320312 197.722656 506.945312 C 197.347656 506.570312 196.953125 506.210938 196.542969 505.875 C 196.132812 505.539062 195.707031 505.222656 195.265625 504.929688 C 194.824219 504.632812 194.371094 504.363281 193.902344 504.113281 C 193.433594 503.863281 192.957031 503.636719 192.464844 503.433594 C 191.976562 503.230469 191.476562 503.050781 190.96875 502.894531 C 190.460938 502.742188 189.949219 502.613281 189.429688 502.511719 C 188.90625 502.40625 188.382812 502.328125 187.855469 502.277344 C 187.328125 502.226562 186.796875 502.199219 186.269531 502.199219 L 121.480469 502.199219 C 120.949219 502.199219 120.421875 502.226562 119.894531 502.277344 C 119.367188 502.328125 118.839844 502.40625 118.320312 502.511719 C 117.800781 502.613281 117.285156 502.742188 116.777344 502.894531 C 116.273438 503.050781 115.773438 503.230469 115.28125 503.433594 C 114.792969 503.636719 114.3125 503.863281 113.84375 504.113281 C 113.378906 504.363281 112.921875 504.632812 112.480469 504.929688 C 112.042969 505.222656 111.617188 505.539062 111.207031 505.875 C 110.796875 506.210938 110.402344 506.570312 110.027344 506.945312 C 109.652344 507.320312 109.296875 507.710938 108.960938 508.121094 C 108.625 508.53125 108.308594 508.957031 108.011719 509.398438 C 107.71875 509.839844 107.445312 510.292969 107.195312 510.761719 C 106.945312 511.230469 106.71875 511.707031 106.515625 512.199219 C 106.3125 512.6875 106.136719 513.1875 105.980469 513.695312 C 105.828125 514.203125 105.699219 514.71875 105.59375 515.238281 C 105.492188 515.757812 105.414062 516.28125 105.363281 516.8125 C 105.308594 517.339844 105.285156 517.867188 105.285156 518.398438 C 105.285156 518.929688 105.308594 519.457031 105.363281 519.988281 C 105.414062 520.515625 105.492188 521.039062 105.59375 521.558594 C 105.699219 522.078125 105.828125 522.59375 105.980469 523.101562 C 106.136719 523.609375 106.3125 524.109375 106.515625 524.597656 C 106.71875 525.089844 106.945312 525.566406 107.195312 526.035156 C 107.445312 526.503906 107.71875 526.957031 108.011719 527.398438 C 108.308594 527.839844 108.625 528.265625 108.960938 528.675781 C 109.296875 529.085938 109.652344 529.476562 110.027344 529.855469 C 110.402344 530.230469 110.796875 530.585938 111.207031 530.921875 C 111.617188 531.257812 112.042969 531.574219 112.480469 531.867188 C 112.921875 532.164062 113.378906 532.433594 113.84375 532.683594 C 114.3125 532.9375 114.792969 533.164062 115.28125 533.363281 C 115.773438 533.566406 116.273438 533.746094 116.777344 533.902344 C 117.285156 534.054688 117.800781 534.183594 118.320312 534.285156 C 118.839844 534.390625 119.367188 534.46875 119.894531 534.519531 C 120.421875 534.574219 120.949219 534.597656 121.480469 534.597656 L 137.675781 534.597656 L 137.675781 615.597656 C 137.675781 616.128906 137.703125 616.65625 137.753906 617.183594 C 137.808594 617.714844 137.886719 618.238281 137.988281 618.757812 C 138.09375 619.277344 138.222656 619.792969 138.375 620.300781 C 138.527344 620.808594 138.707031 621.304688 138.910156 621.796875 C 139.113281 622.285156 139.339844 622.765625 139.589844 623.234375 C 139.839844 623.703125 140.113281 624.15625 140.40625 624.597656 C 140.703125 625.039062 141.019531 625.464844 141.355469 625.875 C 141.691406 626.285156 142.046875 626.675781 142.421875 627.050781 C 142.796875 627.425781 143.1875 627.785156 143.597656 628.121094 C 144.007812 628.457031 144.433594 628.773438 144.875 629.066406 C 145.316406 629.363281 145.773438 629.632812 146.238281 629.882812 C 146.707031 630.132812 147.1875 630.359375 147.675781 630.5625 C 148.167969 630.765625 148.664062 630.945312 149.171875 631.101562 C 149.679688 631.253906 150.195312 631.382812 150.714844 631.484375 C 151.234375 631.589844 151.757812 631.667969 152.285156 631.71875 C 152.816406 631.769531 153.34375 631.796875 153.875 631.796875 C 154.40625 631.796875 154.933594 631.769531 155.460938 631.71875 C 155.988281 631.667969 156.515625 631.589844 157.035156 631.484375 C 157.554688 631.382812 158.070312 631.253906 158.574219 631.097656 C 159.082031 630.945312 159.582031 630.765625 160.074219 630.5625 C 160.5625 630.359375 161.042969 630.132812 161.507812 629.882812 C 161.976562 629.632812 162.433594 629.363281 162.871094 629.066406 C 163.3125 628.773438 163.738281 628.457031 164.148438 628.121094 C 164.558594 627.785156 164.953125 627.425781 165.328125 627.050781 C 165.703125 626.675781 166.058594 626.285156 166.394531 625.875 C 166.730469 625.464844 167.046875 625.039062 167.339844 624.597656 C 167.636719 624.15625 167.910156 623.703125 168.160156 623.234375 C 168.410156 622.765625 168.636719 622.285156 168.839844 621.796875 C 169.042969 621.304688 169.21875 620.808594 169.375 620.300781 C 169.527344 619.792969 169.65625 619.277344 169.761719 618.757812 C 169.863281 618.238281 169.941406 617.714844 169.992188 617.183594 C 170.046875 616.65625 170.070312 616.128906 170.070312 615.597656 L 170.070312 534.597656 L 186.269531 534.597656 C 186.796875 534.597656 187.328125 534.574219 187.855469 534.519531 C 188.382812 534.46875 188.90625 534.390625 189.429688 534.285156 C 189.949219 534.183594 190.460938 534.054688 190.96875 533.902344 C 191.476562 533.746094 191.976562 533.566406 192.464844 533.363281 C 192.957031 533.164062 193.433594 532.9375 193.902344 532.683594 C 194.371094 532.433594 194.824219 532.164062 195.265625 531.867188 C 195.707031 531.574219 196.132812 531.257812 196.542969 530.921875 C 196.953125 530.585938 197.347656 530.230469 197.722656 529.855469 C 198.097656 529.476562 198.453125 529.085938 198.789062 528.675781 C 199.125 528.265625 199.441406 527.839844 199.734375 527.398438 C 200.03125 526.957031 200.300781 526.503906 200.550781 526.035156 C 200.800781 525.566406 201.027344 525.089844 201.230469 524.597656 C 201.433594 524.109375 201.613281 523.609375 201.765625 523.101562 C 201.921875 522.59375 202.050781 522.078125 202.152344 521.558594 C 202.257812 521.039062 202.335938 520.515625 202.386719 519.988281 C 202.4375 519.457031 202.464844 518.929688 202.464844 518.398438 Z M 202.464844 518.398438 " fill-opacity="1" fill-rule="nonzero"/><path fill="#000000" d="M 380.628906 534.597656 L 396.828125 534.597656 L 396.828125 615.597656 C 396.828125 616.128906 396.851562 616.65625 396.90625 617.183594 C 396.957031 617.714844 397.035156 618.238281 397.136719 618.757812 C 397.242188 619.277344 397.371094 619.792969 397.523438 620.300781 C 397.679688 620.808594 397.855469 621.304688 398.058594 621.796875 C 398.261719 622.285156 398.488281 622.765625 398.738281 623.234375 C 398.988281 623.703125 399.261719 624.15625 399.554688 624.597656 C 399.851562 625.039062 400.167969 625.464844 400.503906 625.875 C 400.839844 626.285156 401.195312 626.675781 401.570312 627.050781 C 401.945312 627.425781 402.339844 627.785156 402.75 628.121094 C 403.160156 628.457031 403.582031 628.773438 404.023438 629.066406 C 404.464844 629.363281 404.921875 629.632812 405.386719 629.882812 C 405.855469 630.132812 406.335938 630.359375 406.824219 630.5625 C 407.316406 630.765625 407.8125 630.945312 408.320312 631.101562 C 408.828125 631.253906 409.34375 631.382812 409.863281 631.484375 C 410.382812 631.589844 410.90625 631.667969 411.4375 631.71875 C 411.964844 631.769531 412.492188 631.796875 413.023438 631.796875 C 413.554688 631.796875 414.082031 631.769531 414.609375 631.71875 C 415.140625 631.667969 415.664062 631.589844 416.183594 631.484375 C 416.703125 631.382812 417.21875 631.253906 417.726562 631.097656 C 418.234375 630.945312 418.730469 630.765625 419.222656 630.5625 C 419.710938 630.359375 420.191406 630.132812 420.660156 629.882812 C 421.125 629.632812 421.582031 629.363281 422.023438 629.066406 C 422.464844 628.773438 422.886719 628.457031 423.296875 628.121094 C 423.707031 627.785156 424.101562 627.425781 424.476562 627.050781 C 424.851562 626.675781 425.207031 626.285156 425.542969 625.875 C 425.878906 625.464844 426.195312 625.039062 426.492188 624.597656 C 426.785156 624.15625 427.058594 623.703125 427.308594 623.234375 C 427.558594 622.765625 427.785156 622.285156 427.988281 621.796875 C 428.191406 621.304688 428.367188 620.808594 428.523438 620.300781 C 428.675781 619.792969 428.804688 619.277344 428.910156 618.757812 C 429.011719 618.238281 429.089844 617.714844 429.140625 617.183594 C 429.195312 616.65625 429.21875 616.128906 429.21875 615.597656 L 429.21875 534.597656 L 445.417969 534.597656 C 445.949219 534.597656 446.476562 534.574219 447.003906 534.519531 C 447.53125 534.46875 448.054688 534.390625 448.578125 534.285156 C 449.097656 534.183594 449.609375 534.054688 450.117188 533.902344 C 450.625 533.746094 451.125 533.566406 451.613281 533.363281 C 452.105469 533.164062 452.585938 532.9375 453.050781 532.683594 C 453.519531 532.433594 453.972656 532.164062 454.414062 531.867188 C 454.855469 531.574219 455.28125 531.257812 455.691406 530.921875 C 456.101562 530.585938 456.496094 530.230469 456.871094 529.855469 C 457.246094 529.476562 457.601562 529.085938 457.9375 528.675781 C 458.273438 528.265625 458.589844 527.839844 458.882812 527.398438 C 459.179688 526.957031 459.453125 526.503906 459.703125 526.035156 C 459.953125 525.566406 460.179688 525.089844 460.382812 524.597656 C 460.582031 524.109375 460.761719 523.609375 460.917969 523.101562 C 461.070312 522.59375 461.199219 522.078125 461.300781 521.558594 C 461.40625 521.039062 461.484375 520.515625 461.535156 519.988281 C 461.585938 519.457031 461.613281 518.929688 461.613281 518.398438 C 461.613281 517.867188 461.585938 517.339844 461.535156 516.8125 C 461.484375 516.28125 461.40625 515.757812 461.300781 515.238281 C 461.199219 514.71875 461.070312 514.203125 460.917969 513.695312 C 460.761719 513.1875 460.582031 512.6875 460.382812 512.199219 C 460.179688 511.707031 459.953125 511.230469 459.703125 510.761719 C 459.453125 510.292969 459.179688 509.839844 458.882812 509.398438 C 458.589844 508.957031 458.273438 508.53125 457.9375 508.121094 C 457.601562 507.710938 457.246094 507.320312 456.871094 506.945312 C 456.496094 506.570312 456.101562 506.210938 455.691406 505.875 C 455.28125 505.539062 454.855469 505.222656 454.414062 504.929688 C 453.972656 504.632812 453.519531 504.363281 453.050781 504.113281 C 452.585938 503.863281 452.105469 503.636719 451.613281 503.433594 C 451.125 503.230469 450.625 503.050781 450.117188 502.894531 C 449.609375 502.742188 449.097656 502.613281 448.578125 502.511719 C 448.054688 502.40625 447.53125 502.328125 447.003906 502.277344 C 446.476562 502.226562 445.949219 502.199219 445.417969 502.199219 L 380.628906 502.199219 C 380.097656 502.199219 379.570312 502.226562 379.042969 502.277344 C 378.515625 502.328125 377.988281 502.40625 377.46875 502.511719 C 376.949219 502.613281 376.4375 502.742188 375.929688 502.894531 C 375.421875 503.050781 374.921875 503.230469 374.429688 503.433594 C 373.941406 503.636719 373.460938 503.863281 372.996094 504.113281 C 372.527344 504.363281 372.074219 504.632812 371.632812 504.929688 C 371.191406 505.222656 370.765625 505.539062 370.355469 505.875 C 369.945312 506.210938 369.550781 506.570312 369.175781 506.945312 C 368.800781 507.320312 368.445312 507.710938 368.109375 508.121094 C 367.773438 508.53125 367.457031 508.957031 367.164062 509.398438 C 366.867188 509.839844 366.59375 510.292969 366.34375 510.761719 C 366.09375 511.230469 365.867188 511.707031 365.664062 512.199219 C 365.460938 512.6875 365.285156 513.1875 365.128906 513.695312 C 364.976562 514.203125 364.847656 514.71875 364.746094 515.238281 C 364.640625 515.757812 364.5625 516.28125 364.511719 516.8125 C 364.457031 517.339844 364.433594 517.867188 364.433594 518.398438 C 364.433594 518.929688 364.457031 519.457031 364.511719 519.988281 C 364.5625 520.515625 364.640625 521.039062 364.746094 521.558594 C 364.847656 522.078125 364.976562 522.59375 365.128906 523.101562 C 365.285156 523.609375 365.460938 524.109375 365.664062 524.597656 C 365.867188 525.089844 366.09375 525.566406 366.34375 526.035156 C 366.59375 526.503906 366.867188 526.957031 367.164062 527.398438 C 367.457031 527.839844 367.773438 528.265625 368.109375 528.675781 C 368.445312 529.085938 368.800781 529.476562 369.175781 529.855469 C 369.550781 530.230469 369.945312 530.585938 370.355469 530.921875 C 370.765625 531.257812 371.191406 531.574219 371.632812 531.867188 C 372.074219 532.164062 372.527344 532.433594 372.996094 532.683594 C 373.460938 532.9375 373.941406 533.164062 374.429688 533.363281 C 374.921875 533.566406 375.421875 533.746094 375.929688 533.902344 C 376.4375 534.054688 376.949219 534.183594 377.46875 534.285156 C 377.988281 534.390625 378.515625 534.46875 379.042969 534.519531 C 379.570312 534.574219 380.097656 534.597656 380.628906 534.597656 Z M 380.628906 534.597656 " fill-opacity="1" fill-rule="nonzero"/><path fill="#000000" d="M 232.574219 628.039062 C 232.984375 628.378906 233.40625 628.699219 233.84375 629 C 234.285156 629.296875 234.738281 629.574219 235.203125 629.828125 C 235.667969 630.082031 236.148438 630.3125 236.636719 630.519531 C 237.125 630.730469 237.625 630.910156 238.128906 631.070312 C 238.636719 631.226562 239.152344 631.363281 239.671875 631.46875 C 240.191406 631.578125 240.714844 631.660156 241.242188 631.714844 C 241.773438 631.773438 242.300781 631.800781 242.832031 631.804688 C 243.363281 631.808594 243.894531 631.789062 244.421875 631.738281 C 244.953125 631.691406 245.476562 631.617188 246 631.519531 C 246.523438 631.417969 247.039062 631.292969 247.546875 631.144531 C 248.054688 630.992188 248.558594 630.816406 249.050781 630.617188 C 249.542969 630.417969 250.023438 630.195312 250.492188 629.949219 C 250.964844 629.699219 251.421875 629.429688 251.863281 629.140625 C 252.308594 628.847656 252.734375 628.535156 253.148438 628.199219 C 253.5625 627.863281 253.957031 627.511719 254.335938 627.136719 C 254.714844 626.765625 255.074219 626.375 255.414062 625.964844 L 283.449219 592.300781 L 311.484375 625.964844 C 311.824219 626.375 312.183594 626.761719 312.5625 627.136719 C 312.941406 627.507812 313.335938 627.863281 313.746094 628.195312 C 314.160156 628.527344 314.589844 628.839844 315.03125 629.132812 C 315.472656 629.425781 315.929688 629.695312 316.402344 629.941406 C 316.871094 630.1875 317.351562 630.410156 317.84375 630.609375 C 318.335938 630.808594 318.835938 630.984375 319.34375 631.136719 C 319.851562 631.285156 320.367188 631.410156 320.886719 631.511719 C 321.410156 631.609375 321.933594 631.683594 322.460938 631.734375 C 322.992188 631.78125 323.519531 631.804688 324.050781 631.800781 C 324.582031 631.796875 325.109375 631.765625 325.636719 631.710938 C 326.167969 631.65625 326.691406 631.574219 327.210938 631.46875 C 327.730469 631.359375 328.242188 631.226562 328.75 631.070312 C 329.253906 630.914062 329.753906 630.730469 330.242188 630.523438 C 330.730469 630.316406 331.207031 630.085938 331.675781 629.832031 C 332.140625 629.582031 332.59375 629.304688 333.03125 629.007812 C 333.472656 628.710938 333.894531 628.390625 334.304688 628.050781 C 334.710938 627.710938 335.101562 627.351562 335.472656 626.976562 C 335.847656 626.597656 336.199219 626.203125 336.535156 625.789062 C 336.867188 625.375 337.179688 624.949219 337.472656 624.503906 C 337.765625 624.0625 338.03125 623.605469 338.28125 623.136719 C 338.527344 622.667969 338.75 622.1875 338.949219 621.695312 C 339.148438 621.203125 339.324219 620.703125 339.476562 620.191406 C 339.625 619.683594 339.75 619.167969 339.851562 618.648438 C 339.953125 618.125 340.027344 617.601562 340.074219 617.074219 C 340.121094 616.546875 340.144531 616.015625 340.140625 615.484375 C 340.136719 614.953125 340.109375 614.425781 340.054688 613.898438 C 339.996094 613.371094 339.917969 612.84375 339.808594 612.324219 C 339.703125 611.804688 339.570312 611.292969 339.414062 610.785156 C 339.253906 610.277344 339.074219 609.78125 338.867188 609.292969 C 338.660156 608.804688 338.429688 608.324219 338.179688 607.859375 C 337.925781 607.394531 337.648438 606.941406 337.351562 606.5 C 337.054688 606.0625 336.734375 605.636719 336.394531 605.230469 L 304.503906 566.996094 L 336.363281 528.765625 C 336.703125 528.359375 337.023438 527.933594 337.320312 527.496094 C 337.617188 527.054688 337.890625 526.601562 338.144531 526.136719 C 338.398438 525.671875 338.628906 525.191406 338.835938 524.703125 C 339.042969 524.214844 339.222656 523.71875 339.378906 523.210938 C 339.539062 522.703125 339.667969 522.191406 339.777344 521.671875 C 339.882812 521.152344 339.964844 520.625 340.019531 520.097656 C 340.074219 519.570312 340.105469 519.042969 340.109375 518.511719 C 340.113281 517.980469 340.089844 517.449219 340.042969 516.921875 C 339.992188 516.394531 339.917969 515.871094 339.820312 515.347656 C 339.71875 514.828125 339.59375 514.3125 339.441406 513.804688 C 339.292969 513.292969 339.117188 512.792969 338.917969 512.300781 C 338.71875 511.808594 338.496094 511.328125 338.246094 510.859375 C 338 510.390625 337.730469 509.933594 337.441406 509.492188 C 337.148438 509.046875 336.835938 508.621094 336.5 508.207031 C 336.167969 507.792969 335.8125 507.398438 335.441406 507.019531 C 335.070312 506.644531 334.679688 506.285156 334.269531 505.945312 C 333.863281 505.605469 333.441406 505.289062 333 504.988281 C 332.5625 504.691406 332.109375 504.414062 331.640625 504.164062 C 331.175781 503.910156 330.699219 503.679688 330.210938 503.472656 C 329.722656 503.265625 329.222656 503.082031 328.714844 502.925781 C 328.210938 502.769531 327.695312 502.636719 327.175781 502.527344 C 326.65625 502.421875 326.132812 502.339844 325.605469 502.285156 C 325.078125 502.230469 324.550781 502.199219 324.019531 502.195312 C 323.488281 502.191406 322.957031 502.214844 322.429688 502.261719 C 321.902344 502.3125 321.378906 502.386719 320.855469 502.484375 C 320.335938 502.585938 319.820312 502.710938 319.3125 502.859375 C 318.800781 503.011719 318.300781 503.1875 317.808594 503.386719 C 317.320312 503.585938 316.839844 503.808594 316.367188 504.054688 C 315.898438 504.300781 315.441406 504.570312 315 504.863281 C 314.554688 505.15625 314.128906 505.46875 313.714844 505.800781 C 313.300781 506.132812 312.90625 506.488281 312.53125 506.859375 C 312.152344 507.234375 311.792969 507.621094 311.453125 508.03125 L 283.449219 541.695312 L 255.414062 508.03125 C 255.074219 507.621094 254.714844 507.234375 254.335938 506.859375 C 253.957031 506.488281 253.5625 506.132812 253.148438 505.800781 C 252.738281 505.46875 252.308594 505.15625 251.867188 504.863281 C 251.421875 504.570312 250.96875 504.300781 250.496094 504.054688 C 250.027344 503.808594 249.546875 503.585938 249.054688 503.386719 C 248.5625 503.1875 248.0625 503.011719 247.554688 502.859375 C 247.046875 502.710938 246.53125 502.585938 246.007812 502.484375 C 245.488281 502.386719 244.964844 502.3125 244.433594 502.261719 C 243.90625 502.214844 243.378906 502.191406 242.847656 502.195312 C 242.316406 502.199219 241.785156 502.230469 241.257812 502.285156 C 240.730469 502.339844 240.207031 502.421875 239.6875 502.527344 C 239.167969 502.636719 238.65625 502.769531 238.148438 502.925781 C 237.640625 503.082031 237.144531 503.265625 236.65625 503.472656 C 236.167969 503.679688 235.6875 503.910156 235.222656 504.164062 C 234.757812 504.414062 234.304688 504.691406 233.863281 504.988281 C 233.425781 505.289062 233.003906 505.605469 232.59375 505.945312 C 232.1875 506.285156 231.796875 506.644531 231.425781 507.019531 C 231.050781 507.398438 230.699219 507.792969 230.363281 508.207031 C 230.03125 508.621094 229.71875 509.046875 229.425781 509.492188 C 229.132812 509.933594 228.863281 510.390625 228.617188 510.859375 C 228.371094 511.328125 228.148438 511.808594 227.949219 512.300781 C 227.75 512.792969 227.574219 513.292969 227.421875 513.804688 C 227.273438 514.3125 227.144531 514.828125 227.046875 515.347656 C 226.945312 515.867188 226.871094 516.394531 226.824219 516.921875 C 226.773438 517.449219 226.753906 517.980469 226.757812 518.511719 C 226.761719 519.042969 226.789062 519.570312 226.84375 520.097656 C 226.898438 520.625 226.980469 521.152344 227.089844 521.671875 C 227.195312 522.191406 227.328125 522.703125 227.484375 523.210938 C 227.640625 523.71875 227.824219 524.214844 228.03125 524.703125 C 228.238281 525.191406 228.464844 525.671875 228.71875 526.136719 C 228.972656 526.601562 229.25 527.054688 229.546875 527.496094 C 229.84375 527.933594 230.164062 528.359375 230.5 528.765625 L 262.394531 566.996094 L 230.535156 605.230469 C 230.195312 605.636719 229.875 606.058594 229.578125 606.496094 C 229.277344 606.9375 229.003906 607.386719 228.75 607.851562 C 228.496094 608.320312 228.265625 608.796875 228.058594 609.285156 C 227.851562 609.773438 227.667969 610.269531 227.507812 610.773438 C 227.351562 611.28125 227.21875 611.792969 227.109375 612.3125 C 227 612.832031 226.917969 613.355469 226.863281 613.882812 C 226.804688 614.410156 226.773438 614.9375 226.769531 615.46875 C 226.765625 616 226.785156 616.527344 226.835938 617.054688 C 226.882812 617.585938 226.953125 618.109375 227.054688 618.628906 C 227.152344 619.152344 227.277344 619.667969 227.425781 620.175781 C 227.574219 620.683594 227.75 621.183594 227.945312 621.675781 C 228.144531 622.167969 228.367188 622.648438 228.613281 623.117188 C 228.859375 623.589844 229.125 624.046875 229.417969 624.488281 C 229.707031 624.933594 230.019531 625.359375 230.351562 625.773438 C 230.683594 626.1875 231.035156 626.582031 231.40625 626.960938 C 231.777344 627.339844 232.167969 627.699219 232.574219 628.039062 Z M 232.574219 628.039062 " fill-opacity="1" fill-rule="nonzero"/></svg>