<svg xmlns="http://www.w3.org/2000/svg" xmlns:xlink="http://www.w3.org/1999/xlink" width="1080" zoomAndPan="magnify" viewBox="0 0 810 809.999993" height="1080" preserveAspectRatio="xMidYMid meet" version="1.0"><defs><clipPath id="9c0fb1899a"><path d="M 57.710938 0 L 752.210938 0 L 752.210938 810 L 57.710938 810 Z M 57.710938 0 " clip-rule="nonzero"/></clipPath></defs><path fill="#000000" d="M 684.238281 231.429688 L 710.417969 231.429688 C 711.28125 231.441406 712.140625 231.390625 712.996094 231.277344 C 713.855469 231.164062 714.699219 230.988281 715.527344 230.75 C 716.359375 230.511719 717.167969 230.210938 717.953125 229.851562 C 718.738281 229.496094 719.496094 229.082031 720.21875 228.609375 C 720.945312 228.140625 721.628906 227.617188 722.277344 227.046875 C 722.925781 226.472656 723.527344 225.855469 724.082031 225.195312 C 724.640625 224.535156 725.144531 223.835938 725.597656 223.101562 C 726.050781 222.363281 726.445312 221.597656 726.785156 220.804688 C 727.125 220.011719 727.402344 219.195312 727.621094 218.359375 C 727.839844 217.523438 727.996094 216.675781 728.089844 215.816406 C 728.183594 214.957031 728.210938 214.097656 728.179688 213.230469 C 728.144531 212.367188 728.046875 211.511719 727.882812 210.664062 C 727.722656 209.816406 727.5 208.984375 727.214844 208.167969 C 726.933594 207.351562 726.589844 206.558594 726.1875 205.796875 C 725.785156 205.03125 725.328125 204.296875 724.820312 203.601562 C 724.308594 202.902344 723.75 202.246094 723.144531 201.632812 L 550.746094 29.652344 C 550.144531 29.027344 549.496094 28.449219 548.804688 27.921875 C 548.117188 27.390625 547.390625 26.917969 546.628906 26.496094 C 545.867188 26.074219 545.078125 25.714844 544.265625 25.410156 C 543.449219 25.109375 542.617188 24.867188 541.765625 24.6875 C 540.914062 24.507812 540.054688 24.394531 539.1875 24.34375 C 538.320312 24.292969 537.453125 24.304688 536.585938 24.382812 C 535.71875 24.464844 534.863281 24.605469 534.019531 24.8125 C 533.175781 25.015625 532.347656 25.285156 531.542969 25.613281 C 530.738281 25.941406 529.964844 26.328125 529.214844 26.773438 C 528.46875 27.21875 527.757812 27.714844 527.085938 28.265625 C 526.414062 28.816406 525.785156 29.414062 525.199219 30.058594 C 524.617188 30.703125 524.082031 31.386719 523.601562 32.113281 C 523.117188 32.835938 522.691406 33.589844 522.324219 34.378906 C 521.953125 35.164062 521.644531 35.976562 521.394531 36.808594 C 521.148438 37.640625 520.960938 38.488281 520.839844 39.351562 C 520.714844 40.210938 520.660156 41.078125 520.664062 41.945312 L 520.664062 68.125 C 520.664062 70.800781 520.730469 73.476562 520.863281 76.148438 C 520.992188 78.820312 521.191406 81.488281 521.453125 84.152344 C 521.714844 86.8125 522.042969 89.46875 522.4375 92.113281 C 522.828125 94.761719 523.285156 97.398438 523.808594 100.019531 C 524.332031 102.644531 524.917969 105.253906 525.570312 107.851562 C 526.21875 110.445312 526.933594 113.023438 527.710938 115.582031 C 528.488281 118.144531 529.328125 120.683594 530.230469 123.203125 C 531.132812 125.71875 532.097656 128.214844 533.121094 130.6875 C 534.148438 133.15625 535.230469 135.601562 536.378906 138.019531 C 537.523438 140.4375 538.726562 142.828125 539.988281 145.1875 C 541.25 147.546875 542.570312 149.871094 543.945312 152.167969 C 545.324219 154.460938 546.757812 156.71875 548.242188 158.941406 C 549.730469 161.167969 551.273438 163.351562 552.867188 165.5 C 554.464844 167.648438 556.109375 169.753906 557.808594 171.824219 C 559.507812 173.890625 561.257812 175.914062 563.054688 177.894531 C 564.851562 179.875 566.699219 181.8125 568.59375 183.699219 C 570.484375 185.589844 572.425781 187.433594 574.410156 189.230469 C 576.390625 191.023438 578.417969 192.769531 580.488281 194.464844 C 582.558594 196.160156 584.667969 197.804688 586.820312 199.394531 C 588.96875 200.984375 591.15625 202.523438 593.382812 204.007812 C 595.609375 205.492188 597.871094 206.921875 600.167969 208.292969 C 602.464844 209.667969 604.792969 210.980469 607.152344 212.238281 C 609.515625 213.5 611.90625 214.699219 614.324219 215.839844 C 616.746094 216.980469 619.191406 218.058594 621.664062 219.082031 C 624.136719 220.101562 626.632812 221.0625 629.152344 221.957031 C 631.675781 222.855469 634.214844 223.691406 636.777344 224.464844 C 639.335938 225.238281 641.914062 225.949219 644.511719 226.59375 C 647.109375 227.242188 649.71875 227.824219 652.34375 228.339844 C 654.96875 228.859375 657.605469 229.3125 660.25 229.699219 C 662.898438 230.089844 665.550781 230.410156 668.214844 230.667969 C 670.878906 230.925781 673.546875 231.117188 676.21875 231.246094 C 678.890625 231.371094 681.5625 231.433594 684.238281 231.429688 Z M 684.238281 231.429688 " fill-opacity="1" fill-rule="nonzero"/><path fill="#000000" d="M 444.878906 406.878906 C 442.5625 404.082031 439.949219 401.59375 437.042969 399.417969 C 434.132812 397.242188 431.007812 395.4375 427.667969 394.007812 C 418.765625 390.636719 409.558594 389.144531 400.046875 389.523438 L 381.242188 389.523438 L 381.242188 513.773438 L 400.625 513.773438 C 409.4375 514.011719 418.019531 512.710938 426.367188 509.867188 C 429.734375 508.621094 432.902344 506.980469 435.863281 504.949219 C 438.824219 502.917969 441.492188 500.554688 443.867188 497.859375 C 448.800781 492.023438 452.273438 485.417969 454.28125 478.042969 C 456.75 469 457.90625 459.792969 457.75 450.417969 C 457.824219 442.230469 456.808594 434.179688 454.714844 426.261719 C 452.839844 419.089844 449.5625 412.628906 444.878906 406.878906 Z M 444.878906 406.878906 " fill-opacity="1" fill-rule="nonzero"/><g clip-path="url(#9c0fb1899a)"><path fill="#000000" d="M 684.238281 289.285156 C 680.617188 289.289062 676.996094 289.207031 673.378906 289.03125 C 669.761719 288.859375 666.148438 288.597656 662.546875 288.246094 C 658.941406 287.898438 655.347656 287.457031 651.761719 286.929688 C 648.179688 286.402344 644.609375 285.789062 641.058594 285.085938 C 637.503906 284.382812 633.96875 283.59375 630.457031 282.71875 C 626.941406 281.839844 623.449219 280.878906 619.984375 279.832031 C 616.515625 278.78125 613.074219 277.652344 609.664062 276.433594 C 606.253906 275.21875 602.875 273.917969 599.527344 272.535156 C 596.179688 271.152344 592.867188 269.6875 589.589844 268.140625 C 586.316406 266.59375 583.078125 264.96875 579.882812 263.265625 C 576.6875 261.5625 573.535156 259.777344 570.425781 257.917969 C 567.316406 256.058594 564.257812 254.125 561.242188 252.113281 C 558.230469 250.105469 555.269531 248.019531 552.359375 245.867188 C 549.445312 243.710938 546.589844 241.484375 543.789062 239.1875 C 540.988281 236.890625 538.242188 234.527344 535.558594 232.097656 C 532.871094 229.667969 530.25 227.171875 527.683594 224.613281 C 525.121094 222.050781 522.625 219.429688 520.191406 216.75 C 517.757812 214.066406 515.390625 211.324219 513.089844 208.527344 C 510.789062 205.726562 508.5625 202.875 506.402344 199.964844 C 504.242188 197.058594 502.15625 194.097656 500.140625 191.085938 C 498.128906 188.074219 496.191406 185.015625 494.328125 181.910156 C 492.460938 178.804688 490.675781 175.652344 488.96875 172.460938 C 487.257812 169.265625 485.628906 166.03125 484.082031 162.757812 C 482.53125 159.484375 481.0625 156.175781 479.675781 152.828125 C 478.289062 149.480469 476.984375 146.101562 475.761719 142.691406 C 474.539062 139.28125 473.402344 135.84375 472.351562 132.378906 C 471.300781 128.910156 470.332031 125.421875 469.453125 121.90625 C 468.570312 118.394531 467.777344 114.859375 467.070312 111.308594 C 466.363281 107.753906 465.742188 104.1875 465.210938 100.605469 C 464.679688 97.019531 464.234375 93.425781 463.878906 89.820312 C 463.523438 86.21875 463.257812 82.605469 463.082031 78.988281 C 462.902344 75.371094 462.8125 71.75 462.8125 68.125 C 462.8125 67.015625 462.785156 65.902344 462.730469 64.792969 C 462.679688 63.683594 462.597656 62.574219 462.488281 61.46875 C 462.378906 60.359375 462.242188 59.257812 462.082031 58.15625 C 461.917969 57.058594 461.726562 55.960938 461.511719 54.871094 C 461.296875 53.78125 461.054688 52.695312 460.785156 51.617188 C 460.515625 50.539062 460.21875 49.464844 459.894531 48.402344 C 459.574219 47.339844 459.226562 46.28125 458.851562 45.234375 C 458.480469 44.1875 458.082031 43.148438 457.65625 42.121094 C 457.230469 41.09375 456.78125 40.078125 456.308594 39.070312 C 455.835938 38.066406 455.335938 37.074219 454.8125 36.089844 C 454.289062 35.109375 453.742188 34.140625 453.171875 33.1875 C 452.601562 32.234375 452.011719 31.292969 451.394531 30.367188 C 450.777344 29.441406 450.140625 28.53125 449.476562 27.636719 C 448.816406 26.742188 448.136719 25.867188 447.429688 25.003906 C 446.726562 24.144531 446.003906 23.300781 445.257812 22.476562 C 444.511719 21.652344 443.75 20.84375 442.964844 20.054688 C 442.179688 19.269531 441.375 18.5 440.554688 17.75 C 439.730469 17.003906 438.890625 16.273438 438.035156 15.566406 C 437.175781 14.859375 436.300781 14.171875 435.410156 13.507812 C 434.519531 12.84375 433.613281 12.203125 432.691406 11.582031 C 431.765625 10.960938 430.828125 10.363281 429.878906 9.789062 C 428.925781 9.214844 427.960938 8.664062 426.980469 8.136719 C 426 7.609375 425.011719 7.109375 424.007812 6.628906 C 423.003906 6.152344 421.988281 5.699219 420.960938 5.269531 C 419.9375 4.839844 418.902344 4.4375 417.855469 4.058594 C 416.808594 3.679688 415.753906 3.328125 414.691406 3 C 413.628906 2.675781 412.558594 2.375 411.480469 2.101562 C 410.40625 1.828125 409.320312 1.578125 408.230469 1.359375 C 407.140625 1.136719 406.046875 0.941406 404.949219 0.777344 C 403.847656 0.609375 402.746094 0.46875 401.640625 0.355469 C 400.535156 0.242188 399.425781 0.15625 398.316406 0.0976562 C 397.207031 0.0351562 396.09375 0.00390625 394.984375 0 L 221.429688 0 C 218.753906 -0.00390625 216.082031 0.0546875 213.40625 0.183594 C 210.734375 0.308594 208.066406 0.5 205.40625 0.757812 C 202.742188 1.015625 200.085938 1.339844 197.441406 1.730469 C 194.792969 2.117188 192.15625 2.570312 189.53125 3.089844 C 186.910156 3.605469 184.296875 4.1875 181.703125 4.835938 C 179.105469 5.480469 176.527344 6.191406 173.964844 6.964844 C 171.40625 7.738281 168.863281 8.570312 166.34375 9.46875 C 163.824219 10.367188 161.328125 11.328125 158.855469 12.347656 C 156.382812 13.367188 153.933594 14.449219 151.515625 15.589844 C 149.09375 16.730469 146.703125 17.929688 144.34375 19.1875 C 141.984375 20.445312 139.652344 21.761719 137.359375 23.136719 C 135.0625 24.507812 132.800781 25.9375 130.574219 27.421875 C 128.347656 28.90625 126.160156 30.441406 124.007812 32.035156 C 121.859375 33.625 119.75 35.269531 117.679688 36.964844 C 115.609375 38.660156 113.582031 40.40625 111.597656 42.199219 C 109.613281 43.996094 107.675781 45.835938 105.78125 47.726562 C 103.890625 49.617188 102.042969 51.554688 100.246094 53.535156 C 98.445312 55.515625 96.699219 57.539062 95 59.605469 C 93.300781 61.671875 91.652344 63.78125 90.058594 65.929688 C 88.464844 68.078125 86.921875 70.261719 85.433594 72.484375 C 83.945312 74.710938 82.511719 76.96875 81.136719 79.261719 C 79.761719 81.554688 78.441406 83.882812 77.179688 86.242188 C 75.914062 88.601562 74.710938 90.988281 73.566406 93.40625 C 72.421875 95.824219 71.335938 98.269531 70.3125 100.742188 C 69.285156 103.214844 68.324219 105.707031 67.421875 108.226562 C 66.519531 110.746094 65.679688 113.285156 64.902344 115.847656 C 64.125 118.40625 63.410156 120.984375 62.757812 123.578125 C 62.109375 126.175781 61.523438 128.785156 61 131.40625 C 60.476562 134.03125 60.019531 136.667969 59.625 139.3125 C 59.234375 141.960938 58.90625 144.613281 58.644531 147.277344 C 58.378906 149.941406 58.183594 152.609375 58.050781 155.28125 C 57.921875 157.953125 57.855469 160.625 57.855469 163.300781 L 57.855469 646.699219 C 57.855469 649.375 57.921875 652.046875 58.050781 654.71875 C 58.183594 657.390625 58.378906 660.058594 58.644531 662.722656 C 58.90625 665.386719 59.234375 668.039062 59.625 670.6875 C 60.019531 673.332031 60.476562 675.96875 61 678.59375 C 61.523438 681.214844 62.109375 683.824219 62.757812 686.421875 C 63.410156 689.015625 64.125 691.59375 64.902344 694.152344 C 65.679688 696.714844 66.519531 699.253906 67.421875 701.773438 C 68.324219 704.292969 69.285156 706.785156 70.3125 709.257812 C 71.335938 711.730469 72.421875 714.175781 73.566406 716.59375 C 74.710938 719.011719 75.914062 721.398438 77.179688 723.757812 C 78.441406 726.117188 79.761719 728.445312 81.136719 730.738281 C 82.511719 733.03125 83.945312 735.289062 85.433594 737.515625 C 86.921875 739.738281 88.460938 741.921875 90.058594 744.070312 C 91.652344 746.21875 93.300781 748.328125 95 750.394531 C 96.699219 752.460938 98.445312 754.484375 100.246094 756.464844 C 102.042969 758.445312 103.890625 760.382812 105.78125 762.273438 C 107.675781 764.164062 109.613281 766.003906 111.597656 767.800781 C 113.582031 769.59375 115.609375 771.339844 117.679688 773.035156 C 119.75 774.730469 121.859375 776.375 124.007812 777.964844 C 126.160156 779.558594 128.347656 781.09375 130.574219 782.578125 C 132.800781 784.0625 135.0625 785.492188 137.359375 786.863281 C 139.652344 788.238281 141.980469 789.554688 144.34375 790.8125 C 146.703125 792.070312 149.09375 793.269531 151.515625 794.410156 C 153.933594 795.550781 156.382812 796.632812 158.855469 797.652344 C 161.328125 798.671875 163.824219 799.632812 166.34375 800.53125 C 168.863281 801.429688 171.40625 802.261719 173.964844 803.035156 C 176.527344 803.808594 179.105469 804.519531 181.703125 805.164062 C 184.296875 805.8125 186.910156 806.394531 189.53125 806.910156 C 192.15625 807.429688 194.792969 807.882812 197.441406 808.269531 C 200.085938 808.660156 202.742188 808.984375 205.40625 809.242188 C 208.066406 809.5 210.734375 809.691406 213.40625 809.816406 C 216.082031 809.945312 218.753906 810.003906 221.429688 810 L 589.21875 810 C 591.886719 809.996094 594.554688 809.925781 597.21875 809.789062 C 599.882812 809.652344 602.542969 809.453125 605.199219 809.1875 C 607.855469 808.921875 610.5 808.589844 613.140625 808.195312 C 615.777344 807.796875 618.40625 807.335938 621.023438 806.8125 C 623.640625 806.289062 626.242188 805.699219 628.828125 805.046875 C 631.414062 804.394531 633.984375 803.675781 636.539062 802.898438 C 639.089844 802.121094 641.621094 801.277344 644.132812 800.375 C 646.644531 799.472656 649.132812 798.507812 651.59375 797.484375 C 654.058594 796.457031 656.496094 795.375 658.90625 794.230469 C 661.316406 793.085938 663.699219 791.882812 666.046875 790.621094 C 668.398438 789.359375 670.71875 788.039062 673.007812 786.664062 C 675.292969 785.289062 677.542969 783.859375 679.761719 782.371094 C 681.976562 780.886719 684.15625 779.347656 686.296875 777.753906 C 688.4375 776.160156 690.539062 774.515625 692.601562 772.820312 C 694.660156 771.125 696.675781 769.378906 698.652344 767.585938 C 700.628906 765.789062 702.554688 763.949219 704.441406 762.058594 C 706.324219 760.167969 708.164062 758.234375 709.953125 756.253906 C 711.742188 754.277344 713.480469 752.253906 715.171875 750.1875 C 716.859375 748.121094 718.5 746.019531 720.085938 743.871094 C 721.671875 741.726562 723.207031 739.542969 724.6875 737.324219 C 726.167969 735.101562 727.589844 732.847656 728.960938 730.554688 C 730.328125 728.265625 731.640625 725.941406 732.894531 723.585938 C 734.152344 721.230469 735.347656 718.847656 736.484375 716.433594 C 737.625 714.019531 738.703125 711.578125 739.722656 709.113281 C 740.738281 706.648438 741.695312 704.15625 742.59375 701.644531 C 743.488281 699.128906 744.324219 696.59375 745.09375 694.039062 C 745.867188 691.484375 746.574219 688.914062 747.222656 686.324219 C 747.867188 683.734375 748.449219 681.132812 748.96875 678.515625 C 749.484375 675.894531 749.9375 673.265625 750.328125 670.625 C 750.714844 667.988281 751.039062 665.339844 751.300781 662.683594 C 751.558594 660.027344 751.753906 657.367188 751.882812 654.699219 C 752.007812 652.035156 752.074219 649.367188 752.070312 646.699219 L 752.070312 357.414062 C 752.070312 356.300781 752.042969 355.1875 751.988281 354.078125 C 751.933594 352.96875 751.851562 351.859375 751.742188 350.753906 C 751.636719 349.644531 751.5 348.542969 751.335938 347.441406 C 751.175781 346.34375 750.984375 345.246094 750.769531 344.15625 C 750.550781 343.066406 750.308594 341.980469 750.039062 340.902344 C 749.769531 339.824219 749.476562 338.753906 749.152344 337.6875 C 748.832031 336.625 748.484375 335.566406 748.109375 334.519531 C 747.734375 333.472656 747.335938 332.4375 746.914062 331.40625 C 746.488281 330.378906 746.039062 329.363281 745.566406 328.359375 C 745.089844 327.351562 744.59375 326.359375 744.070312 325.378906 C 743.546875 324.394531 743 323.429688 742.429688 322.472656 C 741.859375 321.519531 741.265625 320.578125 740.648438 319.652344 C 740.035156 318.726562 739.394531 317.816406 738.734375 316.921875 C 738.074219 316.027344 737.390625 315.152344 736.6875 314.289062 C 735.984375 313.429688 735.261719 312.585938 734.515625 311.761719 C 733.769531 310.9375 733.003906 310.128906 732.222656 309.339844 C 731.4375 308.554688 730.632812 307.785156 729.8125 307.035156 C 728.988281 306.289062 728.148438 305.558594 727.289062 304.851562 C 726.433594 304.144531 725.558594 303.460938 724.667969 302.792969 C 723.777344 302.128906 722.867188 301.488281 721.945312 300.867188 C 721.023438 300.246094 720.085938 299.648438 719.132812 299.074219 C 718.183594 298.5 717.214844 297.949219 716.238281 297.421875 C 715.257812 296.898438 714.265625 296.394531 713.261719 295.914062 C 712.257812 295.4375 711.246094 294.984375 710.21875 294.554688 C 709.191406 294.125 708.15625 293.722656 707.113281 293.34375 C 706.066406 292.964844 705.011719 292.613281 703.949219 292.289062 C 702.886719 291.960938 701.816406 291.660156 700.738281 291.386719 C 699.660156 291.113281 698.578125 290.863281 697.488281 290.644531 C 696.398438 290.421875 695.304688 290.230469 694.203125 290.0625 C 693.105469 289.894531 692.003906 289.753906 690.898438 289.640625 C 689.792969 289.527344 688.683594 289.441406 687.574219 289.382812 C 686.460938 289.324219 685.351562 289.289062 684.238281 289.285156 Z M 310.664062 443.1875 C 309.09375 447.046875 307.085938 450.667969 304.640625 454.042969 C 302.195312 457.417969 299.382812 460.453125 296.203125 463.144531 C 292.941406 465.964844 289.421875 468.410156 285.644531 470.480469 C 281.867188 472.554688 277.914062 474.207031 273.785156 475.441406 C 263.503906 478.539062 252.992188 479.984375 242.253906 479.78125 L 227.503906 479.78125 L 227.503906 537.636719 C 227.503906 538.601562 227.214844 539.46875 226.636719 540.242188 C 225.757812 541.058594 224.746094 541.636719 223.597656 541.976562 C 221.765625 542.589844 219.886719 542.976562 217.957031 543.132812 C 214.921875 543.308594 211.882812 543.308594 208.847656 543.132812 C 205.859375 543.308594 202.867188 543.308594 199.878906 543.132812 C 197.902344 542.988281 195.976562 542.601562 194.09375 541.976562 C 192.96875 541.671875 192.003906 541.089844 191.203125 540.242188 C 190.625 539.46875 190.335938 538.601562 190.335938 537.636719 L 190.335938 373.613281 C 190.207031 371.78125 190.445312 370 191.050781 368.265625 C 191.652344 366.535156 192.570312 364.988281 193.804688 363.632812 C 195.054688 362.523438 196.46875 361.695312 198.046875 361.144531 C 199.625 360.59375 201.25 360.363281 202.917969 360.449219 L 258.597656 360.449219 C 263.46875 360.851562 268.289062 361.578125 273.0625 362.621094 C 278.851562 363.78125 284.347656 365.757812 289.550781 368.550781 C 295.09375 371.324219 299.914062 375.035156 304.011719 379.6875 C 308.132812 384.261719 311.167969 389.46875 313.125 395.308594 C 315.230469 401.84375 316.242188 408.546875 316.160156 415.414062 C 316.152344 425.03125 314.320312 434.289062 310.664062 443.1875 Z M 489.570312 491.785156 C 487.648438 497.296875 485.097656 502.496094 481.917969 507.386719 C 478.738281 512.28125 475.023438 516.722656 470.769531 520.714844 C 466.460938 524.566406 461.78125 527.898438 456.730469 530.707031 C 451.675781 533.511719 446.378906 535.726562 440.832031 537.347656 C 427.144531 541.078125 413.214844 542.816406 399.03125 542.554688 L 355.644531 542.554688 C 354.214844 542.625 352.820312 542.421875 351.472656 541.945312 C 350.121094 541.46875 348.90625 540.757812 347.835938 539.808594 C 346.660156 538.625 345.792969 537.25 345.238281 535.679688 C 344.679688 534.109375 344.484375 532.496094 344.652344 530.839844 L 344.652344 371.730469 C 344.597656 371.351562 344.5625 370.96875 344.550781 370.585938 C 344.539062 370.199219 344.546875 369.816406 344.578125 369.433594 C 344.609375 369.046875 344.660156 368.667969 344.734375 368.289062 C 344.808594 367.914062 344.902344 367.539062 345.019531 367.171875 C 345.132812 366.804688 345.269531 366.445312 345.425781 366.09375 C 345.578125 365.742188 345.753906 365.402344 345.949219 365.070312 C 346.144531 364.738281 346.355469 364.417969 346.585938 364.109375 C 346.816406 363.800781 347.0625 363.503906 347.324219 363.226562 C 347.589844 362.945312 347.867188 362.679688 348.160156 362.429688 C 348.453125 362.179688 348.757812 361.949219 349.078125 361.734375 C 349.398438 361.519531 349.726562 361.324219 350.070312 361.144531 C 350.410156 360.96875 350.757812 360.808594 351.117188 360.671875 C 351.476562 360.53125 351.84375 360.414062 352.214844 360.316406 C 352.585938 360.21875 352.964844 360.144531 353.34375 360.089844 C 353.726562 360.035156 354.109375 360 354.492188 359.988281 C 354.875 359.976562 355.261719 359.984375 355.644531 360.015625 L 402.503906 360.015625 C 416.640625 359.695312 430.476562 361.574219 444.011719 365.65625 C 449.414062 367.34375 454.554688 369.617188 459.4375 372.472656 C 464.320312 375.332031 468.820312 378.699219 472.9375 382.582031 C 476.90625 386.46875 480.378906 390.757812 483.359375 395.449219 C 486.339844 400.140625 488.746094 405.105469 490.582031 410.351562 C 494.875 422.769531 496.898438 435.546875 496.65625 448.683594 C 496.835938 463.46875 494.472656 477.835938 489.570312 491.785156 Z M 628.847656 382.4375 C 628.703125 384.039062 628.320312 385.582031 627.691406 387.0625 C 627.246094 388.023438 626.667969 388.890625 625.953125 389.667969 C 625.273438 390.195312 624.5 390.4375 623.640625 390.390625 L 564.054688 390.390625 L 564.054688 439.570312 L 620.167969 439.570312 C 620.972656 439.570312 621.695312 439.8125 622.339844 440.292969 C 623.152344 440.96875 623.78125 441.789062 624.21875 442.75 C 624.773438 444.195312 625.113281 445.691406 625.230469 447.234375 C 625.410156 449.597656 625.410156 451.960938 625.230469 454.324219 C 625.402344 456.6875 625.402344 459.046875 625.230469 461.410156 C 625.109375 463 624.773438 464.542969 624.21875 466.039062 C 623.78125 467.042969 623.15625 467.910156 622.339844 468.644531 C 621.617188 468.933594 620.890625 468.933594 620.167969 468.644531 L 564.054688 468.644531 L 564.054688 536.769531 C 564.054688 537.777344 563.765625 538.695312 563.1875 539.519531 C 562.328125 540.398438 561.316406 541.023438 560.148438 541.398438 C 558.300781 541.941406 556.421875 542.328125 554.507812 542.554688 C 551.472656 542.734375 548.433594 542.734375 545.398438 542.554688 C 542.40625 542.730469 539.417969 542.730469 536.429688 542.554688 C 534.515625 542.34375 532.632812 541.957031 530.789062 541.398438 C 529.621094 541.023438 528.609375 540.398438 527.75 539.519531 C 527.058594 538.734375 526.722656 537.816406 526.738281 536.769531 L 526.738281 372.167969 C 526.683594 371.785156 526.648438 371.402344 526.636719 371.019531 C 526.625 370.632812 526.632812 370.25 526.664062 369.867188 C 526.695312 369.484375 526.746094 369.101562 526.820312 368.722656 C 526.894531 368.347656 526.988281 367.972656 527.105469 367.605469 C 527.21875 367.238281 527.355469 366.878906 527.511719 366.527344 C 527.667969 366.175781 527.84375 365.835938 528.035156 365.503906 C 528.230469 365.171875 528.441406 364.851562 528.671875 364.542969 C 528.902344 364.234375 529.148438 363.941406 529.414062 363.660156 C 529.675781 363.378906 529.953125 363.113281 530.246094 362.863281 C 530.539062 362.613281 530.847656 362.382812 531.164062 362.167969 C 531.484375 361.953125 531.8125 361.757812 532.15625 361.578125 C 532.496094 361.402344 532.847656 361.242188 533.207031 361.105469 C 533.5625 360.964844 533.929688 360.847656 534.300781 360.75 C 534.675781 360.652344 535.050781 360.578125 535.429688 360.523438 C 535.8125 360.46875 536.195312 360.433594 536.578125 360.421875 C 536.964844 360.410156 537.347656 360.417969 537.730469 360.449219 L 623.785156 360.449219 C 624.554688 360.175781 625.328125 360.175781 626.097656 360.449219 C 626.851562 361.148438 627.429688 361.964844 627.835938 362.910156 C 628.441406 364.445312 628.828125 366.039062 628.992188 367.683594 L 628.992188 374.914062 C 628.992188 374.914062 628.992188 380.84375 628.847656 382.726562 Z M 628.847656 382.4375 " fill-opacity="1" fill-rule="nonzero"/></g><path fill="#000000" d="M 264.960938 393.574219 C 261.683594 391.898438 258.214844 390.886719 254.550781 390.535156 C 250.804688 390.070312 247.042969 389.828125 243.269531 389.8125 L 227.503906 389.8125 L 227.503906 451.71875 L 244.136719 451.71875 C 249.097656 451.839844 253.921875 451.066406 258.597656 449.40625 C 262.425781 447.929688 265.703125 445.664062 268.433594 442.605469 C 271.144531 439.625 273.070312 436.199219 274.21875 432.335938 C 275.589844 428.105469 276.261719 423.765625 276.242188 419.320312 C 276.34375 416.5625 276.097656 413.839844 275.511719 411.144531 C 274.921875 408.453125 274.007812 405.871094 272.773438 403.410156 C 271.949219 401.441406 270.875 399.621094 269.546875 397.949219 C 268.222656 396.28125 266.691406 394.820312 264.960938 393.574219 Z M 264.960938 393.574219 " fill-opacity="1" fill-rule="nonzero"/></svg>