<svg xmlns="http://www.w3.org/2000/svg" xmlns:xlink="http://www.w3.org/1999/xlink" width="1080" zoomAndPan="magnify" viewBox="0 0 810 809.999993" height="1080" preserveAspectRatio="xMidYMid meet" version="1.0"><defs><clipPath id="88af3178e0"><path d="M 0 92.136719 L 810 92.136719 L 810 717.636719 L 0 717.636719 Z M 0 92.136719 " clip-rule="nonzero"/></clipPath></defs><g clip-path="url(#88af3178e0)"><path fill="#000000" d="M 55.335938 92.136719 C 25.046875 92.136719 0.128906 117.042969 0.128906 147.324219 L 0.128906 662.394531 C 0.128906 667.949219 1.242188 673.195312 2.789062 678.273438 L 94.078125 353.480469 C 100.742188 329.789062 122.542969 313.242188 147.199219 313.242188 L 732.539062 313.242188 L 736.203125 220.90625 C 736.203125 190.625 711.289062 165.71875 681 165.71875 L 317.632812 165.71875 C 312.738281 165.71875 308.121094 163.898438 304.621094 160.402344 L 304.621094 160.328125 L 252.078125 108.160156 L 252.078125 108.234375 C 241.734375 97.894531 227.691406 92.136719 213.117188 92.136719 Z M 147.199219 350.03125 C 138.957031 350.03125 131.726562 355.449219 129.515625 363.398438 L 36.574219 694.226562 C 35.027344 699.78125 36.097656 705.722656 39.59375 710.320312 C 43.050781 714.921875 48.480469 717.578125 54.257812 717.578125 L 666.980469 717.578125 C 694.144531 717.578125 717.414062 698.644531 723.265625 672.523438 L 809.019531 373.457031 C 810.605469 367.902344 809.5 361.886719 806.003906 357.289062 C 802.503906 352.691406 797.117188 350.03125 791.339844 350.03125 Z M 147.199219 350.03125 " fill-opacity="1" fill-rule="nonzero"/></g></svg>