<svg xmlns="http://www.w3.org/2000/svg" xmlns:xlink="http://www.w3.org/1999/xlink" width="1080" zoomAndPan="magnify" viewBox="0 0 810 809.999993" height="1080" preserveAspectRatio="xMidYMid meet" version="1.0"><path fill="#000000" d="M 243 320.375 L 249.449219 320.375 M 804.761719 406.207031 C 804.761719 629.460938 625.433594 811.210938 405 811.210938 C 184.566406 811.210938 5.238281 629.460938 5.238281 406.207031 C 5.238281 182.957031 184.566406 1.207031 405 1.207031 C 625.433594 1.207031 804.761719 182.957031 804.761719 406.207031 Z M 724.164062 406.207031 C 724.164062 227.285156 581.105469 81.804688 405 81.804688 C 228.894531 81.804688 85.835938 227.285156 85.835938 406.207031 C 85.835938 585.132812 228.894531 730.613281 405 730.613281 C 581.105469 730.613281 724.164062 585.132812 724.164062 406.210938 Z M 398.957031 254.285156 C 451.746094 253.476562 452.957031 172.476562 398.957031 172.476562 C 346.566406 174.089844 345.359375 253.476562 398.957031 254.285156 Z M 444.492188 335.6875 C 444.492188 313.523438 426.359375 295.792969 404.195312 295.792969 L 325.210938 295.792969 L 325.210938 376.386719 L 364.296875 376.386719 L 365.507812 599.640625 C 365.507812 621.804688 383.640625 639.539062 405.804688 639.539062 L 484.792969 639.539062 L 484.792969 558.941406 L 445.703125 558.941406 Z M 444.492188 335.6875 " fill-opacity="1" fill-rule="nonzero"/></svg>