<svg xmlns="http://www.w3.org/2000/svg" xmlns:xlink="http://www.w3.org/1999/xlink" width="1080" zoomAndPan="magnify" viewBox="0 0 810 809.999993" height="1080" preserveAspectRatio="xMidYMid meet" version="1.0"><path fill="#000000" d="M 732.871094 107.5625 C 658.710938 33.371094 538.058594 33.371094 463.945312 107.5625 L 372.863281 198.660156 C 359.257812 212.273438 359.257812 234.328125 372.863281 247.941406 C 386.472656 261.554688 408.515625 261.554688 422.125 247.941406 L 513.203125 156.84375 C 629.304688 47.734375 792.921875 211.375 683.609375 327.335938 C 683.613281 327.332031 577.179688 433.835938 577.179688 433.835938 C 523.292969 489.21875 427.09375 477.199219 388.535156 410.328125 C 378.714844 393.746094 357.328125 388.320312 340.796875 398.125 C 304.378906 421.097656 335.402344 461.886719 357.492188 483.117188 C 394.570312 520.214844 443.261719 538.75 491.953125 538.75 C 540.667969 538.75 589.359375 520.214844 626.4375 483.117188 L 732.871094 376.636719 C 806.683594 305.789062 806.71875 178.394531 732.871094 107.5625 Z M 732.871094 107.5625 " fill-opacity="1" fill-rule="nonzero"/><path fill="#000000" d="M 435.1875 575.894531 L 344.109375 666.992188 C 228.871094 776.433594 64.296875 611.867188 173.703125 496.5 C 173.699219 496.503906 280.132812 390 280.132812 390 C 333.941406 334.734375 429.984375 346.507812 468.59375 413.304688 C 478.390625 429.886719 499.800781 435.355469 516.308594 425.507812 C 552.671875 402.667969 521.785156 361.78125 499.820312 340.71875 C 425.660156 266.527344 305.03125 266.570312 230.871094 340.71875 C 230.871094 340.71875 124.441406 447.222656 124.441406 447.222656 C 4.621094 565.425781 92.488281 773.851562 258.90625 771.90625 C 307.597656 771.90625 356.308594 753.371094 393.367188 716.273438 L 484.445312 625.175781 C 516.246094 592.195312 468.125 544.066406 435.1875 575.894531 Z M 435.1875 575.894531 " fill-opacity="1" fill-rule="nonzero"/></svg>