<svg xmlns="http://www.w3.org/2000/svg" xmlns:xlink="http://www.w3.org/1999/xlink" width="1080" zoomAndPan="magnify" viewBox="0 0 810 809.999993" height="1080" preserveAspectRatio="xMidYMid meet" version="1.0"><defs><clipPath id="822112779e"><path d="M 26.324219 0 L 652 0 L 652 810 L 26.324219 810 Z M 26.324219 0 " clip-rule="nonzero"/></clipPath><clipPath id="a1fe15638d"><path d="M 383 136 L 783.824219 136 L 783.824219 539 L 383 539 Z M 383 136 " clip-rule="nonzero"/></clipPath></defs><g clip-path="url(#822112779e)"><path fill="#000000" d="M 614.945312 810 L 63.769531 810 C 43.578125 810 26.882812 793.5 26.882812 773.3125 L 26.882812 36.6875 C 26.882812 16.5 43.382812 0 63.769531 0 L 496.324219 0 C 499.429688 0 502.339844 1.164062 504.476562 3.492188 L 557.285156 56.289062 C 586.015625 85.019531 612.03125 111.027344 648.144531 147.132812 C 650.277344 149.265625 651.636719 152.371094 651.636719 155.285156 L 651.636719 213.710938 C 651.636719 216.816406 650.472656 219.726562 648.335938 221.863281 L 449.921875 423.148438 L 415.945312 506.226562 L 499.816406 474.390625 L 631.835938 340.652344 C 635.136719 337.355469 640.183594 336.191406 644.453125 338.128906 C 648.921875 339.878906 651.636719 344.148438 651.636719 349 L 651.636719 773.507812 C 651.636719 793.5 635.136719 810 614.945312 810 Z M 63.769531 23.292969 C 56.390625 23.292969 50.179688 29.308594 50.179688 36.6875 L 50.179688 773.121094 C 50.179688 780.496094 56.199219 786.511719 63.769531 786.511719 L 614.945312 786.511719 C 622.320312 786.511719 628.339844 780.496094 628.339844 773.121094 L 628.339844 377.144531 L 514.570312 492.636719 C 513.40625 493.804688 512.046875 494.773438 510.496094 495.355469 L 399.25 537.28125 C 394.980469 538.835938 389.933594 537.863281 386.824219 534.566406 C 383.523438 531.265625 382.554688 526.414062 384.300781 521.949219 L 429.34375 412.085938 C 429.925781 410.726562 430.703125 409.367188 431.867188 408.398438 L 628.339844 208.855469 L 628.339844 160.136719 C 593.976562 125.78125 568.933594 100.742188 540.976562 72.789062 L 491.46875 23.292969 Z M 63.769531 23.292969 " fill-opacity="1" fill-rule="nonzero"/></g><path fill="#000000" d="M 639.988281 166.929688 L 526.996094 166.929688 C 503.699219 166.929688 484.675781 147.90625 484.675781 124.617188 L 484.675781 11.644531 C 484.675781 6.988281 487.585938 2.71875 491.859375 0.96875 C 496.128906 -0.777344 501.175781 0.195312 504.476562 3.492188 L 557.285156 56.289062 C 586.015625 85.019531 612.03125 111.027344 648.144531 147.132812 C 651.445312 150.429688 652.414062 155.476562 650.667969 159.75 C 649.113281 164.019531 644.84375 166.929688 639.988281 166.929688 Z M 507.972656 39.597656 L 507.972656 124.617188 C 507.972656 135.097656 516.515625 143.636719 526.996094 143.636719 L 612.03125 143.636719 C 585.628906 117.238281 564.273438 95.886719 540.976562 72.59375 Z M 507.972656 39.597656 " fill-opacity="1" fill-rule="nonzero"/><path fill="#000000" d="M 409.347656 106.371094 L 121.820312 106.371094 C 115.414062 106.371094 110.171875 101.128906 110.171875 94.722656 C 110.171875 88.316406 115.414062 83.078125 121.820312 83.078125 L 409.539062 83.078125 C 415.945312 83.078125 421.1875 88.316406 421.1875 94.722656 C 421.1875 101.128906 415.945312 106.371094 409.347656 106.371094 Z M 409.347656 106.371094 " fill-opacity="1" fill-rule="nonzero"/><path fill="#000000" d="M 409.347656 179.351562 L 121.820312 179.351562 C 115.414062 179.351562 110.171875 174.113281 110.171875 167.707031 C 110.171875 161.300781 115.414062 156.058594 121.820312 156.058594 L 409.539062 156.058594 C 415.945312 156.058594 421.1875 161.300781 421.1875 167.707031 C 421.1875 174.113281 415.945312 179.351562 409.347656 179.351562 Z M 409.347656 179.351562 " fill-opacity="1" fill-rule="nonzero"/><path fill="#000000" d="M 348.96875 252.53125 L 121.820312 252.53125 C 115.414062 252.53125 110.171875 247.289062 110.171875 240.882812 C 110.171875 234.480469 115.414062 229.238281 121.820312 229.238281 L 348.96875 229.238281 C 355.375 229.238281 360.617188 234.480469 360.617188 240.882812 C 360.617188 247.289062 355.375 252.53125 348.96875 252.53125 Z M 348.96875 252.53125 " fill-opacity="1" fill-rule="nonzero"/><path fill="#000000" d="M 440.019531 343.566406 L 121.625 343.566406 C 115.21875 343.566406 109.976562 338.324219 109.976562 331.917969 C 109.976562 325.515625 115.21875 320.273438 121.625 320.273438 L 440.019531 320.273438 C 446.425781 320.273438 451.667969 325.515625 451.667969 331.917969 C 451.667969 338.324219 446.621094 343.566406 440.019531 343.566406 Z M 440.019531 343.566406 " fill-opacity="1" fill-rule="nonzero"/><path fill="#000000" d="M 383.523438 409.5625 L 121.820312 409.5625 C 115.414062 409.5625 110.171875 404.320312 110.171875 397.914062 C 110.171875 391.507812 115.414062 386.269531 121.820312 386.269531 L 383.523438 386.269531 C 389.933594 386.269531 395.171875 391.507812 395.171875 397.914062 C 395.171875 404.320312 389.933594 409.5625 383.523438 409.5625 Z M 383.523438 409.5625 " fill-opacity="1" fill-rule="nonzero"/><path fill="#000000" d="M 137.351562 529.128906 C 118.324219 529.128906 102.988281 513.601562 102.988281 494.773438 C 102.988281 475.945312 118.519531 460.417969 137.351562 460.417969 C 156.183594 460.417969 171.714844 475.945312 171.714844 494.773438 C 171.714844 513.601562 156.375 529.128906 137.351562 529.128906 Z M 137.351562 483.515625 C 131.136719 483.515625 126.285156 488.5625 126.285156 494.578125 C 126.285156 500.597656 131.332031 505.644531 137.351562 505.644531 C 143.367188 505.644531 148.417969 500.597656 148.417969 494.578125 C 148.417969 488.5625 143.5625 483.515625 137.351562 483.515625 Z M 137.351562 483.515625 " fill-opacity="1" fill-rule="nonzero"/><path fill="#000000" d="M 342.367188 506.226562 L 205.105469 506.226562 C 198.699219 506.226562 193.457031 500.984375 193.457031 494.578125 C 193.457031 488.175781 198.699219 482.933594 205.105469 482.933594 L 342.367188 482.933594 C 348.773438 482.933594 354.015625 488.175781 354.015625 494.578125 C 354.015625 500.984375 348.96875 506.226562 342.367188 506.226562 Z M 342.367188 506.226562 " fill-opacity="1" fill-rule="nonzero"/><path fill="#000000" d="M 137.351562 617.058594 C 118.324219 617.058594 102.988281 601.53125 102.988281 582.703125 C 102.988281 563.875 118.519531 548.347656 137.351562 548.347656 C 156.183594 548.347656 171.714844 563.875 171.714844 582.703125 C 171.714844 601.53125 156.375 617.058594 137.351562 617.058594 Z M 137.351562 571.445312 C 131.136719 571.445312 126.285156 576.492188 126.285156 582.507812 C 126.285156 588.71875 131.332031 593.574219 137.351562 593.574219 C 143.367188 593.574219 148.417969 588.527344 148.417969 582.507812 C 148.417969 576.492188 143.5625 571.445312 137.351562 571.445312 Z M 137.351562 571.445312 " fill-opacity="1" fill-rule="nonzero"/><path fill="#000000" d="M 555.34375 594.347656 L 205.300781 594.347656 C 198.894531 594.347656 193.652344 589.109375 193.652344 582.703125 C 193.652344 576.296875 198.894531 571.058594 205.300781 571.058594 L 555.34375 571.058594 C 561.75 571.058594 566.992188 576.296875 566.992188 582.703125 C 566.992188 589.109375 561.75 594.347656 555.34375 594.347656 Z M 555.34375 594.347656 " fill-opacity="1" fill-rule="nonzero"/><path fill="#000000" d="M 137.351562 704.988281 C 118.324219 704.988281 102.988281 689.460938 102.988281 670.632812 C 102.988281 651.804688 118.519531 636.277344 137.351562 636.277344 C 156.183594 636.277344 171.714844 651.804688 171.714844 670.632812 C 171.714844 689.460938 156.375 704.988281 137.351562 704.988281 Z M 137.351562 659.375 C 131.136719 659.375 126.285156 664.421875 126.285156 670.4375 C 126.285156 676.648438 131.332031 681.503906 137.351562 681.503906 C 143.367188 681.503906 148.417969 676.457031 148.417969 670.4375 C 148.417969 664.421875 143.5625 659.375 137.351562 659.375 Z M 137.351562 659.375 " fill-opacity="1" fill-rule="nonzero"/><path fill="#000000" d="M 555.34375 682.277344 L 205.300781 682.277344 C 198.894531 682.277344 193.652344 677.039062 193.652344 670.632812 C 193.652344 664.226562 198.894531 658.984375 205.300781 658.984375 L 555.34375 658.984375 C 561.75 658.984375 566.992188 664.226562 566.992188 670.632812 C 566.992188 677.039062 561.75 682.277344 555.34375 682.277344 Z M 555.34375 682.277344 " fill-opacity="1" fill-rule="nonzero"/><g clip-path="url(#a1fe15638d)"><path fill="#000000" d="M 394.980469 538.058594 C 391.875 538.058594 388.960938 536.894531 386.632812 534.566406 C 383.332031 531.265625 382.359375 526.414062 384.109375 521.949219 L 429.148438 412.085938 C 429.730469 410.726562 430.507812 409.367188 431.671875 408.398438 L 687.359375 148.878906 C 695.320312 140.726562 706.191406 136.261719 717.453125 136.261719 C 717.453125 136.261719 717.648438 136.261719 717.648438 136.261719 C 729.101562 136.261719 739.972656 140.921875 747.933594 149.265625 L 771.230469 173.335938 C 787.34375 190.027344 787.152344 216.039062 770.84375 232.539062 L 514.574219 492.445312 C 513.40625 493.609375 512.046875 494.578125 510.496094 495.160156 L 399.25 537.28125 C 397.890625 537.863281 396.53125 538.058594 394.980469 538.058594 Z M 449.921875 423.148438 L 415.945312 506.226562 L 499.816406 474.390625 L 754.535156 216.234375 C 761.910156 208.855469 761.910156 197.015625 754.726562 189.640625 L 731.429688 165.570312 C 727.742188 161.882812 723.082031 159.75 717.839844 159.75 C 717.839844 159.75 717.839844 159.75 717.648438 159.75 C 712.597656 159.75 707.746094 161.6875 704.058594 165.378906 Z M 762.6875 224.386719 Z M 762.6875 224.386719 " fill-opacity="1" fill-rule="nonzero"/></g><path fill="#000000" d="M 499.039062 492.25 C 495.933594 492.25 493.023438 491.085938 490.691406 488.757812 L 432.0625 428.582031 C 427.597656 423.925781 427.597656 416.550781 432.253906 412.085938 C 436.914062 407.621094 444.292969 407.621094 448.757812 412.277344 L 507.390625 472.453125 C 511.855469 477.109375 511.855469 484.484375 507.195312 488.949219 C 504.863281 491.28125 501.953125 492.25 499.039062 492.25 Z M 499.039062 492.25 " fill-opacity="1" fill-rule="nonzero"/><path fill="#000000" d="M 688.523438 296.980469 C 685.613281 296.980469 682.507812 295.816406 680.371094 293.488281 L 620.378906 233.507812 C 615.914062 229.042969 615.914062 221.667969 620.378906 217.007812 C 624.847656 212.546875 632.222656 212.546875 636.882812 217.007812 L 696.875 276.988281 C 701.339844 281.453125 701.339844 288.828125 696.875 293.488281 C 694.542969 296.011719 691.4375 296.980469 688.523438 296.980469 Z M 688.523438 296.980469 " fill-opacity="1" fill-rule="nonzero"/><path fill="#000000" d="M 730.265625 257.578125 C 727.355469 257.578125 724.246094 256.414062 722.113281 254.082031 L 663.675781 195.65625 C 659.210938 191.195312 659.210938 183.816406 663.675781 179.160156 C 668.140625 174.695312 675.519531 174.695312 680.175781 179.160156 L 738.613281 237.585938 C 743.078125 242.050781 743.078125 249.425781 738.613281 254.082031 C 736.285156 256.605469 733.179688 257.578125 730.265625 257.578125 Z M 730.265625 257.578125 " fill-opacity="1" fill-rule="nonzero"/></svg>