<svg xmlns="http://www.w3.org/2000/svg" xmlns:xlink="http://www.w3.org/1999/xlink" width="1080" zoomAndPan="magnify" viewBox="0 0 810 809.999993" height="1080" preserveAspectRatio="xMidYMid meet" version="1.0"><defs><clipPath id="5574116b22"><path d="M 5 23 L 810 23 L 810 789.367188 L 5 789.367188 Z M 5 23 " clip-rule="nonzero"/></clipPath></defs><g clip-path="url(#5574116b22)"><path fill="#000000" d="M 747.03125 107.351562 L 687.945312 107.351562 C 679.582031 102.453125 670.613281 99.261719 661.039062 97.78125 L 622.0625 91.957031 L 622.0625 73.507812 C 622.0625 72.3125 622.003906 71.121094 621.886719 69.933594 C 621.769531 68.746094 621.59375 67.5625 621.363281 66.390625 C 621.128906 65.21875 620.839844 64.0625 620.492188 62.917969 C 620.144531 61.777344 619.742188 60.652344 619.285156 59.550781 C 618.828125 58.445312 618.320312 57.367188 617.757812 56.3125 C 617.191406 55.257812 616.578125 54.234375 615.914062 53.242188 C 615.25 52.25 614.542969 51.292969 613.78125 50.367188 C 613.023438 49.445312 612.222656 48.558594 611.378906 47.714844 C 610.535156 46.871094 609.648438 46.070312 608.726562 45.3125 C 607.804688 44.554688 606.84375 43.84375 605.851562 43.179688 C 604.859375 42.515625 603.835938 41.902344 602.78125 41.339844 C 601.726562 40.773438 600.648438 40.265625 599.546875 39.808594 C 598.441406 39.351562 597.316406 38.949219 596.175781 38.601562 C 595.03125 38.253906 593.875 37.964844 592.703125 37.730469 C 591.53125 37.5 590.351562 37.324219 589.160156 37.207031 C 587.972656 37.089844 586.78125 37.03125 585.585938 37.03125 L 539.398438 37.03125 C 538.203125 37.03125 537.011719 37.089844 535.824219 37.207031 C 534.632812 37.324219 533.453125 37.5 532.28125 37.730469 C 531.109375 37.964844 529.953125 38.253906 528.808594 38.601562 C 527.667969 38.949219 526.542969 39.351562 525.441406 39.808594 C 524.335938 40.265625 523.257812 40.773438 522.203125 41.339844 C 521.148438 41.902344 520.125 42.515625 519.132812 43.179688 C 518.140625 43.84375 517.179688 44.554688 516.257812 45.3125 C 515.335938 46.070312 514.449219 46.871094 513.605469 47.714844 C 512.761719 48.558594 511.960938 49.445312 511.203125 50.367188 C 510.441406 51.292969 509.734375 52.25 509.070312 53.242188 C 508.40625 54.234375 507.792969 55.257812 507.226562 56.3125 C 506.664062 57.367188 506.15625 58.445312 505.699219 59.550781 C 505.242188 60.652344 504.839844 61.777344 504.492188 62.917969 C 504.144531 64.0625 503.855469 65.21875 503.621094 66.390625 C 503.390625 67.5625 503.214844 68.746094 503.097656 69.933594 C 502.980469 71.121094 502.921875 72.3125 502.921875 73.507812 L 170.738281 24.410156 C 169.523438 24.222656 168.304688 24.066406 167.082031 23.941406 C 165.859375 23.8125 164.636719 23.71875 163.40625 23.652344 C 162.179688 23.585938 160.953125 23.550781 159.722656 23.542969 C 158.496094 23.539062 157.265625 23.5625 156.039062 23.617188 C 154.8125 23.671875 153.585938 23.757812 152.363281 23.871094 C 151.140625 23.988281 149.917969 24.132812 148.703125 24.308594 C 147.484375 24.484375 146.273438 24.6875 145.066406 24.921875 C 143.863281 25.15625 142.664062 25.421875 141.46875 25.714844 C 140.277344 26.007812 139.089844 26.332031 137.914062 26.683594 C 136.734375 27.035156 135.566406 27.417969 134.410156 27.828125 C 133.25 28.238281 132.101562 28.675781 130.964844 29.140625 C 129.828125 29.605469 128.703125 30.101562 127.589844 30.621094 C 126.476562 31.144531 125.378906 31.691406 124.292969 32.269531 C 123.207031 32.84375 122.136719 33.445312 121.078125 34.074219 C 120.023438 34.703125 118.984375 35.355469 117.960938 36.035156 C 116.9375 36.714844 115.929688 37.417969 114.941406 38.148438 C 113.949219 38.878906 112.980469 39.628906 112.027344 40.40625 C 111.074219 41.183594 110.144531 41.984375 109.230469 42.808594 C 108.316406 43.628906 107.425781 44.472656 106.554688 45.339844 C 105.683594 46.207031 104.832031 47.09375 104.003906 48.003906 C 103.179688 48.914062 102.375 49.839844 101.589844 50.789062 C 100.808594 51.738281 100.050781 52.703125 99.316406 53.6875 C 98.582031 54.675781 97.875 55.675781 97.1875 56.699219 C 96.503906 57.71875 95.84375 58.753906 95.210938 59.808594 C 94.578125 60.859375 93.96875 61.929688 93.386719 63.011719 C 92.804688 64.09375 92.253906 65.191406 91.726562 66.300781 C 91.199219 67.410156 90.699219 68.53125 90.226562 69.667969 C 89.753906 70.800781 89.308594 71.945312 88.894531 73.105469 C 88.476562 74.261719 88.089844 75.425781 87.734375 76.601562 C 87.375 77.777344 87.046875 78.960938 86.746094 80.152344 C 86.445312 81.34375 86.175781 82.542969 85.933594 83.746094 C 85.691406 84.953125 85.480469 86.164062 85.300781 87.378906 L 6.378906 613.039062 C 6.199219 614.253906 6.046875 615.476562 5.925781 616.703125 C 5.800781 617.925781 5.710938 619.152344 5.648438 620.382812 C 5.585938 621.613281 5.554688 622.84375 5.550781 624.074219 C 5.550781 625.304688 5.578125 626.535156 5.636719 627.765625 C 5.695312 628.992188 5.785156 630.222656 5.902344 631.445312 C 6.019531 632.671875 6.167969 633.894531 6.347656 635.109375 C 6.527344 636.328125 6.734375 637.542969 6.972656 638.75 C 7.207031 639.957031 7.476562 641.160156 7.773438 642.351562 C 8.070312 643.546875 8.394531 644.734375 8.75 645.914062 C 9.101562 647.09375 9.484375 648.261719 9.898438 649.421875 C 10.308594 650.582031 10.75 651.730469 11.21875 652.871094 C 11.683594 654.007812 12.179688 655.132812 12.703125 656.25 C 13.226562 657.363281 13.777344 658.464844 14.355469 659.550781 C 14.929688 660.636719 15.535156 661.710938 16.164062 662.769531 C 16.792969 663.828125 17.449219 664.867188 18.128906 665.894531 C 18.808594 666.917969 19.515625 667.929688 20.242188 668.917969 C 20.972656 669.910156 21.726562 670.882812 22.503906 671.839844 C 23.28125 672.792969 24.082031 673.726562 24.90625 674.640625 C 25.730469 675.558594 26.574219 676.453125 27.441406 677.324219 C 28.308594 678.199219 29.195312 679.050781 30.105469 679.882812 C 31.011719 680.710938 31.941406 681.519531 32.890625 682.304688 C 33.835938 683.089844 34.804688 683.851562 35.789062 684.589844 C 36.773438 685.328125 37.777344 686.039062 38.796875 686.726562 C 39.820312 687.417969 40.855469 688.078125 41.910156 688.71875 C 42.960938 689.355469 44.027344 689.96875 45.113281 690.554688 C 46.195312 691.136719 47.289062 691.695312 48.402344 692.230469 C 49.511719 692.761719 50.632812 693.265625 51.769531 693.742188 C 52.902344 694.21875 54.046875 694.667969 55.207031 695.089844 C 56.363281 695.511719 57.527344 695.902344 58.703125 696.265625 C 59.878906 696.628906 61.066406 696.964844 62.257812 697.269531 C 63.449219 697.578125 64.648438 697.851562 65.855469 698.101562 C 67.058594 698.347656 68.273438 698.566406 69.488281 698.753906 L 163.941406 712.621094 L 163.941406 726.492188 C 163.945312 727.527344 163.972656 728.5625 164.023438 729.59375 C 164.078125 730.628906 164.15625 731.660156 164.261719 732.6875 C 164.363281 733.71875 164.496094 734.746094 164.648438 735.769531 C 164.804688 736.792969 164.984375 737.808594 165.1875 738.824219 C 165.394531 739.839844 165.625 740.847656 165.878906 741.851562 C 166.132812 742.855469 166.410156 743.851562 166.714844 744.839844 C 167.019531 745.828125 167.347656 746.808594 167.699219 747.78125 C 168.050781 748.757812 168.429688 749.71875 168.828125 750.675781 C 169.226562 751.628906 169.648438 752.574219 170.097656 753.507812 C 170.542969 754.441406 171.011719 755.363281 171.503906 756.273438 C 171.996094 757.183594 172.507812 758.082031 173.046875 758.96875 C 173.582031 759.851562 174.136719 760.722656 174.71875 761.582031 C 175.296875 762.441406 175.894531 763.28125 176.515625 764.109375 C 177.136719 764.941406 177.777344 765.75 178.4375 766.546875 C 179.097656 767.34375 179.777344 768.125 180.476562 768.886719 C 181.175781 769.652344 181.894531 770.398438 182.628906 771.125 C 183.367188 771.851562 184.117188 772.5625 184.890625 773.253906 C 185.660156 773.941406 186.449219 774.613281 187.25 775.265625 C 188.054688 775.917969 188.875 776.550781 189.710938 777.160156 C 190.542969 777.773438 191.394531 778.363281 192.257812 778.929688 C 193.121094 779.5 194 780.050781 194.890625 780.574219 C 195.78125 781.101562 196.6875 781.605469 197.601562 782.085938 C 198.519531 782.570312 199.445312 783.027344 200.382812 783.464844 C 201.324219 783.898438 202.269531 784.3125 203.230469 784.703125 C 204.1875 785.089844 205.15625 785.457031 206.132812 785.796875 C 207.109375 786.140625 208.09375 786.457031 209.089844 786.75 C 210.082031 787.042969 211.078125 787.308594 212.085938 787.554688 C 213.089844 787.796875 214.101562 788.015625 215.121094 788.210938 C 216.136719 788.402344 217.15625 788.570312 218.183594 788.714844 C 219.207031 788.859375 220.234375 788.976562 221.265625 789.070312 C 222.296875 789.164062 223.328125 789.230469 224.363281 789.273438 C 225.394531 789.3125 226.429688 789.332031 227.464844 789.320312 L 747.585938 789.320312 C 749.636719 789.296875 751.679688 789.175781 753.714844 788.953125 C 755.753906 788.734375 757.777344 788.414062 759.78125 787.996094 C 761.789062 787.574219 763.769531 787.0625 765.726562 786.449219 C 767.683594 785.835938 769.605469 785.132812 771.492188 784.332031 C 773.378906 783.535156 775.222656 782.644531 777.023438 781.667969 C 778.824219 780.6875 780.574219 779.625 782.269531 778.476562 C 783.96875 777.328125 785.605469 776.097656 787.183594 774.789062 C 788.761719 773.480469 790.269531 772.097656 791.714844 770.644531 C 793.15625 769.1875 794.523438 767.664062 795.820312 766.078125 C 797.113281 764.488281 798.328125 762.839844 799.460938 761.132812 C 800.597656 759.425781 801.644531 757.667969 802.605469 755.855469 C 803.570312 754.046875 804.441406 752.195312 805.222656 750.300781 C 806.007812 748.40625 806.695312 746.480469 807.289062 744.515625 C 807.882812 742.554688 808.378906 740.570312 808.78125 738.558594 C 809.183594 736.550781 809.484375 734.527344 809.6875 732.488281 C 809.890625 730.445312 809.996094 728.402344 810 726.351562 L 810 170.597656 C 810.003906 168.527344 809.90625 166.46875 809.710938 164.410156 C 809.511719 162.351562 809.214844 160.308594 808.816406 158.28125 C 808.414062 156.253906 807.917969 154.25 807.324219 152.269531 C 806.726562 150.292969 806.035156 148.347656 805.25 146.433594 C 804.460938 144.523438 803.585938 142.65625 802.613281 140.832031 C 801.644531 139.007812 800.585938 137.234375 799.441406 135.511719 C 798.296875 133.792969 797.070312 132.128906 795.761719 130.53125 C 794.457031 128.929688 793.074219 127.398438 791.613281 125.933594 C 790.15625 124.46875 788.628906 123.078125 787.035156 121.761719 C 785.441406 120.449219 783.785156 119.214844 782.066406 118.0625 C 780.351562 116.910156 778.585938 115.84375 776.761719 114.867188 C 774.941406 113.890625 773.078125 113.003906 771.171875 112.207031 C 769.261719 111.410156 767.320312 110.710938 765.34375 110.109375 C 763.367188 109.503906 761.367188 108.996094 759.339844 108.589844 C 757.3125 108.183594 755.273438 107.875 753.214844 107.667969 C 751.160156 107.460938 749.097656 107.355469 747.03125 107.351562 Z M 529.828125 73.507812 C 529.828125 72.875 529.890625 72.25 530.011719 71.632812 C 530.132812 71.011719 530.316406 70.410156 530.554688 69.824219 C 530.792969 69.242188 531.085938 68.683594 531.4375 68.15625 C 531.785156 67.628906 532.179688 67.140625 532.625 66.691406 C 533.066406 66.242188 533.550781 65.839844 534.070312 65.484375 C 534.59375 65.128906 535.144531 64.828125 535.726562 64.578125 C 536.308594 64.332031 536.90625 64.140625 537.523438 64.011719 C 538.140625 63.878906 538.765625 63.808594 539.398438 63.800781 L 585.585938 63.800781 C 586.21875 63.808594 586.847656 63.878906 587.46875 64.007812 C 588.089844 64.140625 588.695312 64.328125 589.28125 64.574219 C 589.863281 64.820312 590.421875 65.121094 590.949219 65.476562 C 591.472656 65.832031 591.960938 66.234375 592.410156 66.683594 C 592.859375 67.132812 593.261719 67.621094 593.617188 68.148438 C 593.972656 68.671875 594.273438 69.230469 594.519531 69.8125 C 594.765625 70.398438 594.957031 71.003906 595.085938 71.625 C 595.214844 72.246094 595.285156 72.875 595.292969 73.507812 L 595.292969 87.378906 L 529.828125 77.667969 Z M 163.941406 170.597656 L 163.941406 685.714844 L 73.511719 671.84375 C 71.933594 671.605469 70.375 671.289062 68.832031 670.894531 C 67.289062 670.5 65.765625 670.03125 64.269531 669.488281 C 62.769531 668.945312 61.304688 668.328125 59.867188 667.640625 C 58.429688 666.949219 57.03125 666.195312 55.667969 665.367188 C 54.304688 664.542969 52.984375 663.652344 51.710938 662.695312 C 50.4375 661.738281 49.210938 660.722656 48.035156 659.644531 C 46.863281 658.570312 45.742188 657.4375 44.679688 656.25 C 43.617188 655.066406 42.613281 653.828125 41.671875 652.542969 C 40.730469 651.257812 39.855469 649.929688 39.042969 648.558594 C 38.234375 647.1875 37.492188 645.777344 36.820312 644.332031 C 36.148438 642.886719 35.546875 641.414062 35.019531 639.910156 C 34.496094 638.40625 34.042969 636.878906 33.664062 635.332031 C 33.289062 633.785156 32.988281 632.222656 32.765625 630.644531 C 32.542969 629.066406 32.398438 627.480469 32.332031 625.886719 C 32.265625 624.296875 32.277344 622.707031 32.367188 621.113281 C 32.457031 619.523438 32.625 617.941406 32.871094 616.367188 L 111.792969 90.707031 C 112.261719 87.640625 113.023438 84.644531 114.074219 81.726562 C 115.125 78.808594 116.449219 76.015625 118.042969 73.351562 C 119.636719 70.691406 121.46875 68.203125 123.542969 65.898438 C 125.621094 63.589844 127.898438 61.503906 130.375 59.640625 C 132.925781 57.746094 135.636719 56.125 138.511719 54.773438 C 141.386719 53.425781 144.367188 52.375 147.453125 51.625 C 150.539062 50.875 153.667969 50.4375 156.839844 50.316406 C 160.011719 50.195312 163.164062 50.390625 166.300781 50.902344 L 543.699219 107.351562 L 227.464844 107.351562 C 226.425781 107.339844 225.386719 107.359375 224.347656 107.398438 C 223.3125 107.441406 222.273438 107.511719 221.238281 107.605469 C 220.203125 107.699219 219.171875 107.816406 218.144531 107.960938 C 217.113281 108.105469 216.089844 108.277344 215.066406 108.472656 C 214.046875 108.667969 213.03125 108.886719 212.023438 109.132812 C 211.011719 109.378906 210.011719 109.648438 209.011719 109.945312 C 208.015625 110.238281 207.027344 110.558594 206.046875 110.90625 C 205.066406 111.25 204.097656 111.617188 203.132812 112.007812 C 202.171875 112.402344 201.21875 112.816406 200.277344 113.257812 C 199.335938 113.695312 198.40625 114.160156 197.488281 114.644531 C 196.566406 115.128906 195.660156 115.640625 194.769531 116.167969 C 193.875 116.699219 192.996094 117.25 192.128906 117.824219 C 191.261719 118.398438 190.410156 118.996094 189.574219 119.609375 C 188.738281 120.226562 187.914062 120.863281 187.109375 121.519531 C 186.304688 122.175781 185.515625 122.855469 184.746094 123.550781 C 183.972656 124.246094 183.21875 124.960938 182.480469 125.695312 C 181.746094 126.425781 181.027344 127.179688 180.328125 127.945312 C 179.628906 128.714844 178.949219 129.5 178.289062 130.304688 C 177.628906 131.105469 176.988281 131.925781 176.367188 132.757812 C 175.75 133.59375 175.148438 134.441406 174.570312 135.304688 C 173.992188 136.167969 173.4375 137.046875 172.902344 137.9375 C 172.371094 138.828125 171.855469 139.734375 171.367188 140.648438 C 170.878906 141.566406 170.410156 142.496094 169.96875 143.433594 C 169.523438 144.375 169.105469 145.324219 168.707031 146.285156 C 168.3125 147.246094 167.9375 148.214844 167.589844 149.195312 C 167.242188 150.171875 166.917969 151.160156 166.617188 152.15625 C 166.316406 153.152344 166.042969 154.152344 165.792969 155.160156 C 165.542969 156.167969 165.316406 157.183594 165.117188 158.203125 C 164.917969 159.222656 164.742188 160.246094 164.59375 161.277344 C 164.445312 162.304688 164.320312 163.335938 164.222656 164.371094 C 164.125 165.40625 164.050781 166.441406 164.003906 167.480469 C 163.957031 168.519531 163.9375 169.558594 163.941406 170.597656 Z M 783.230469 726.351562 C 783.226562 727.535156 783.164062 728.714844 783.042969 729.890625 C 782.925781 731.070312 782.746094 732.234375 782.511719 733.394531 C 782.277344 734.554688 781.988281 735.699219 781.640625 736.832031 C 781.292969 737.960938 780.890625 739.070312 780.4375 740.164062 C 779.980469 741.253906 779.472656 742.320312 778.910156 743.363281 C 778.351562 744.40625 777.742188 745.417969 777.082031 746.398438 C 776.421875 747.378906 775.71875 748.328125 774.964844 749.238281 C 774.210938 750.152344 773.417969 751.027344 772.578125 751.859375 C 771.742188 752.695312 770.863281 753.488281 769.949219 754.234375 C 769.035156 754.984375 768.082031 755.6875 767.101562 756.34375 C 766.117188 756.996094 765.101562 757.605469 764.058594 758.160156 C 763.015625 758.714844 761.945312 759.21875 760.851562 759.671875 C 759.757812 760.125 758.648438 760.519531 757.515625 760.863281 C 756.382812 761.207031 755.238281 761.492188 754.078125 761.722656 C 752.917969 761.953125 751.746094 762.125 750.570312 762.242188 C 749.394531 762.355469 748.214844 762.414062 747.03125 762.414062 L 227.464844 762.414062 C 226.28125 762.414062 225.101562 762.355469 223.925781 762.242188 C 222.75 762.125 221.582031 761.953125 220.421875 761.722656 C 219.261719 761.492188 218.113281 761.207031 216.980469 760.863281 C 215.851562 760.519531 214.738281 760.125 213.644531 759.671875 C 212.550781 759.21875 211.484375 758.714844 210.4375 758.160156 C 209.394531 757.605469 208.382812 756.996094 207.398438 756.34375 C 206.414062 755.6875 205.460938 754.984375 204.546875 754.234375 C 203.632812 753.488281 202.753906 752.695312 201.917969 751.859375 C 201.078125 751.027344 200.285156 750.152344 199.53125 749.238281 C 198.78125 748.328125 198.074219 747.378906 197.414062 746.398438 C 196.753906 745.417969 196.144531 744.40625 195.585938 743.363281 C 195.023438 742.320312 194.515625 741.253906 194.0625 740.164062 C 193.605469 739.070312 193.203125 737.960938 192.855469 736.832031 C 192.511719 735.699219 192.21875 734.554688 191.984375 733.394531 C 191.75 732.238281 191.574219 731.070312 191.453125 729.890625 C 191.332031 728.714844 191.269531 727.535156 191.265625 726.351562 L 191.265625 170.597656 C 191.261719 169.40625 191.316406 168.222656 191.425781 167.039062 C 191.539062 165.855469 191.710938 164.679688 191.9375 163.515625 C 192.164062 162.347656 192.449219 161.195312 192.792969 160.058594 C 193.132812 158.917969 193.53125 157.800781 193.980469 156.699219 C 194.433594 155.601562 194.9375 154.527344 195.496094 153.476562 C 196.050781 152.425781 196.660156 151.40625 197.316406 150.417969 C 197.976562 149.429688 198.679688 148.472656 199.433594 147.554688 C 200.183594 146.632812 200.980469 145.75 201.820312 144.910156 C 202.65625 144.066406 203.535156 143.269531 204.453125 142.511719 C 205.371094 141.757812 206.324219 141.050781 207.308594 140.386719 C 208.296875 139.726562 209.316406 139.113281 210.363281 138.550781 C 211.410156 137.992188 212.484375 137.480469 213.582031 137.027344 C 214.679688 136.570312 215.796875 136.167969 216.933594 135.824219 C 218.070312 135.476562 219.222656 135.1875 220.386719 134.957031 C 221.550781 134.722656 222.726562 134.550781 223.910156 134.433594 C 225.089844 134.316406 226.277344 134.257812 227.464844 134.257812 L 595.292969 134.257812 L 595.292969 233.703125 C 595.292969 234.339844 595.230469 234.972656 595.109375 235.597656 C 594.984375 236.222656 594.800781 236.828125 594.554688 237.417969 C 594.3125 238.007812 594.011719 238.566406 593.65625 239.097656 C 593.304688 239.625 592.902344 240.117188 592.449219 240.566406 C 592 241.019531 591.507812 241.421875 590.980469 241.777344 C 590.449219 242.128906 589.890625 242.429688 589.300781 242.671875 C 588.710938 242.917969 588.105469 243.101562 587.480469 243.226562 C 586.855469 243.347656 586.222656 243.410156 585.585938 243.410156 C 584.949219 243.410156 584.316406 243.347656 583.691406 243.226562 C 583.066406 243.101562 582.460938 242.917969 581.871094 242.671875 C 581.28125 242.429688 580.722656 242.128906 580.191406 241.777344 C 579.660156 241.421875 579.171875 241.019531 578.71875 240.566406 C 578.269531 240.117188 577.867188 239.625 577.511719 239.097656 C 577.160156 238.566406 576.859375 238.007812 576.617188 237.417969 C 576.371094 236.828125 576.1875 236.222656 576.0625 235.597656 C 575.9375 234.972656 575.875 234.339844 575.875 233.703125 L 575.875 167.40625 C 576.015625 166.894531 576.125 166.375 576.207031 165.847656 C 576.285156 165.324219 576.335938 164.796875 576.351562 164.265625 C 576.371094 163.734375 576.359375 163.203125 576.320312 162.675781 C 576.277344 162.144531 576.203125 161.621094 576.101562 161.097656 C 576 160.578125 575.867188 160.0625 575.707031 159.558594 C 575.546875 159.050781 575.355469 158.558594 575.136719 158.074219 C 574.921875 157.589844 574.675781 157.117188 574.402344 156.664062 C 574.132812 156.207031 573.832031 155.765625 573.511719 155.34375 C 573.1875 154.921875 572.84375 154.519531 572.472656 154.140625 C 572.105469 153.757812 571.714844 153.398438 571.304688 153.058594 C 570.894531 152.722656 570.46875 152.410156 570.019531 152.121094 C 569.574219 151.832031 569.113281 151.570312 568.636719 151.335938 C 568.160156 151.097656 567.671875 150.890625 567.171875 150.714844 C 566.671875 150.535156 566.164062 150.382812 565.648438 150.261719 C 565.128906 150.140625 564.609375 150.050781 564.082031 149.992188 C 563.554688 149.929688 563.023438 149.898438 562.492188 149.898438 C 561.960938 149.898438 561.433594 149.929688 560.902344 149.992188 C 560.375 150.050781 559.855469 150.140625 559.335938 150.261719 C 558.820312 150.382812 558.3125 150.535156 557.8125 150.714844 C 557.3125 150.890625 556.824219 151.097656 556.347656 151.335938 C 555.871094 151.570312 555.410156 151.832031 554.964844 152.121094 C 554.515625 152.410156 554.089844 152.722656 553.679688 153.058594 C 553.269531 153.398438 552.878906 153.757812 552.511719 154.140625 C 552.140625 154.519531 551.796875 154.921875 551.472656 155.34375 C 551.152344 155.765625 550.855469 156.207031 550.582031 156.664062 C 550.308594 157.117188 550.0625 157.589844 549.847656 158.074219 C 549.628906 158.558594 549.4375 159.050781 549.277344 159.558594 C 549.117188 160.0625 548.984375 160.578125 548.882812 161.097656 C 548.78125 161.621094 548.707031 162.144531 548.664062 162.675781 C 548.625 163.203125 548.613281 163.734375 548.632812 164.265625 C 548.648438 164.796875 548.699219 165.324219 548.78125 165.847656 C 548.859375 166.375 548.96875 166.894531 549.109375 167.40625 L 549.109375 233.703125 C 549.109375 234.898438 549.167969 236.089844 549.285156 237.277344 C 549.402344 238.46875 549.574219 239.648438 549.808594 240.820312 C 550.042969 241.992188 550.332031 243.148438 550.679688 244.292969 C 551.023438 245.433594 551.425781 246.558594 551.882812 247.664062 C 552.339844 248.765625 552.851562 249.84375 553.414062 250.898438 C 553.976562 251.953125 554.589844 252.976562 555.253906 253.96875 C 555.917969 254.960938 556.628906 255.921875 557.386719 256.84375 C 558.144531 257.765625 558.945312 258.652344 559.792969 259.496094 C 560.636719 260.339844 561.519531 261.140625 562.445312 261.898438 C 563.367188 262.65625 564.328125 263.367188 565.320312 264.03125 C 566.3125 264.695312 567.335938 265.308594 568.390625 265.871094 C 569.445312 266.4375 570.523438 266.945312 571.625 267.402344 C 572.730469 267.859375 573.851562 268.261719 574.996094 268.609375 C 576.140625 268.957031 577.296875 269.246094 578.46875 269.480469 C 579.640625 269.710938 580.820312 269.886719 582.011719 270.003906 C 583.199219 270.121094 584.390625 270.179688 585.585938 270.179688 C 586.78125 270.179688 587.972656 270.121094 589.160156 270.003906 C 590.351562 269.886719 591.53125 269.710938 592.703125 269.480469 C 593.875 269.246094 595.03125 268.957031 596.175781 268.609375 C 597.316406 268.261719 598.441406 267.859375 599.546875 267.402344 C 600.648438 266.945312 601.726562 266.4375 602.78125 265.871094 C 603.835938 265.308594 604.859375 264.695312 605.851562 264.03125 C 606.84375 263.367188 607.804688 262.65625 608.726562 261.898438 C 609.648438 261.140625 610.535156 260.339844 611.378906 259.496094 C 612.222656 258.652344 613.023438 257.765625 613.78125 256.84375 C 614.542969 255.921875 615.25 254.960938 615.914062 253.96875 C 616.578125 252.976562 617.191406 251.953125 617.757812 250.898438 C 618.320312 249.84375 618.828125 248.765625 619.285156 247.664062 C 619.742188 246.558594 620.144531 245.433594 620.492188 244.292969 C 620.839844 243.148438 621.128906 241.992188 621.363281 240.820312 C 621.59375 239.648438 621.769531 238.46875 621.886719 237.277344 C 622.003906 236.089844 622.0625 234.898438 622.0625 233.703125 L 622.0625 134.257812 L 746.890625 134.257812 C 748.082031 134.253906 749.273438 134.308594 750.457031 134.421875 C 751.644531 134.53125 752.820312 134.703125 753.992188 134.933594 C 755.160156 135.160156 756.316406 135.449219 757.457031 135.789062 C 758.597656 136.132812 759.71875 136.53125 760.820312 136.988281 C 761.921875 137.441406 763 137.945312 764.050781 138.507812 C 765.101562 139.066406 766.121094 139.679688 767.113281 140.339844 C 768.105469 141 769.0625 141.707031 769.984375 142.464844 C 770.902344 143.21875 771.785156 144.015625 772.628906 144.859375 C 773.472656 145.703125 774.269531 146.585938 775.023438 147.503906 C 775.78125 148.425781 776.488281 149.382812 777.148438 150.375 C 777.8125 151.367188 778.421875 152.386719 778.980469 153.4375 C 779.542969 154.488281 780.046875 155.566406 780.503906 156.667969 C 780.957031 157.769531 781.355469 158.890625 781.699219 160.03125 C 782.039062 161.171875 782.328125 162.328125 782.554688 163.496094 C 782.785156 164.667969 782.957031 165.84375 783.070312 167.03125 C 783.179688 168.214844 783.234375 169.40625 783.230469 170.597656 Z M 783.230469 726.351562 " fill-opacity="1" fill-rule="nonzero"/></g><path fill="#000000" d="M 684.339844 323.164062 L 314.847656 325.660156 C 314.117188 325.855469 313.40625 326.113281 312.71875 326.425781 C 312.03125 326.742188 311.375 327.109375 310.746094 327.53125 C 310.121094 327.953125 309.53125 328.421875 308.980469 328.941406 C 308.429688 329.460938 307.921875 330.019531 307.464844 330.621094 C 307.003906 331.21875 306.597656 331.855469 306.242188 332.519531 C 305.886719 333.1875 305.589844 333.878906 305.34375 334.597656 C 305.101562 335.3125 304.921875 336.042969 304.796875 336.789062 C 304.675781 337.535156 304.613281 338.285156 304.613281 339.042969 C 304.613281 339.800781 304.675781 340.550781 304.796875 341.296875 C 304.921875 342.042969 305.101562 342.773438 305.34375 343.488281 C 305.589844 344.207031 305.886719 344.898438 306.242188 345.566406 C 306.597656 346.230469 307.003906 346.867188 307.464844 347.464844 C 307.921875 348.066406 308.429688 348.625 308.980469 349.144531 C 309.53125 349.664062 310.121094 350.132812 310.746094 350.554688 C 311.375 350.976562 312.03125 351.34375 312.71875 351.660156 C 313.40625 351.972656 314.117188 352.230469 314.847656 352.425781 L 685.171875 350.070312 C 685.902344 349.871094 686.609375 349.613281 687.296875 349.300781 C 687.984375 348.988281 688.644531 348.617188 689.269531 348.195312 C 689.898438 347.773438 690.488281 347.304688 691.039062 346.785156 C 691.589844 346.269531 692.09375 345.710938 692.550781 345.109375 C 693.011719 344.507812 693.417969 343.875 693.773438 343.207031 C 694.128906 342.539062 694.429688 341.847656 694.671875 341.132812 C 694.914062 340.414062 695.097656 339.683594 695.21875 338.9375 C 695.34375 338.191406 695.402344 337.441406 695.402344 336.683594 C 695.402344 335.929688 695.34375 335.179688 695.21875 334.433594 C 695.097656 333.6875 694.914062 332.953125 694.671875 332.238281 C 694.429688 331.523438 694.128906 330.832031 693.773438 330.164062 C 693.417969 329.496094 693.011719 328.863281 692.550781 328.261719 C 692.09375 327.660156 691.589844 327.101562 691.039062 326.582031 C 690.488281 326.066406 689.898438 325.59375 689.269531 325.171875 C 688.644531 324.75 687.984375 324.382812 687.296875 324.070312 C 686.609375 323.753906 685.902344 323.5 685.171875 323.300781 Z M 684.339844 323.164062 " fill-opacity="1" fill-rule="nonzero"/><path fill="#000000" d="M 684.339844 460.332031 L 314.847656 462.828125 C 314.117188 463.027344 313.40625 463.285156 312.71875 463.597656 C 312.03125 463.914062 311.375 464.28125 310.746094 464.703125 C 310.121094 465.125 309.53125 465.59375 308.980469 466.113281 C 308.429688 466.628906 307.921875 467.1875 307.464844 467.789062 C 307.003906 468.390625 306.597656 469.023438 306.242188 469.691406 C 305.886719 470.359375 305.589844 471.050781 305.34375 471.765625 C 305.101562 472.484375 304.921875 473.214844 304.796875 473.960938 C 304.675781 474.707031 304.613281 475.457031 304.613281 476.214844 C 304.613281 476.96875 304.675781 477.722656 304.796875 478.46875 C 304.921875 479.214844 305.101562 479.945312 305.34375 480.660156 C 305.589844 481.375 305.886719 482.070312 306.242188 482.734375 C 306.597656 483.402344 307.003906 484.035156 307.464844 484.636719 C 307.921875 485.238281 308.429688 485.796875 308.980469 486.316406 C 309.53125 486.832031 310.121094 487.304688 310.746094 487.726562 C 311.375 488.148438 312.03125 488.515625 312.71875 488.828125 C 313.40625 489.144531 314.117188 489.398438 314.847656 489.597656 L 685.171875 487.101562 C 685.902344 486.902344 686.609375 486.648438 687.296875 486.332031 C 687.984375 486.019531 688.644531 485.652344 689.269531 485.230469 C 689.898438 484.808594 690.488281 484.335938 691.039062 483.820312 C 691.589844 483.300781 692.09375 482.742188 692.550781 482.140625 C 693.011719 481.539062 693.417969 480.90625 693.773438 480.238281 C 694.128906 479.570312 694.429688 478.878906 694.671875 478.164062 C 694.914062 477.449219 695.097656 476.714844 695.21875 475.96875 C 695.34375 475.222656 695.402344 474.472656 695.402344 473.71875 C 695.402344 472.960938 695.34375 472.210938 695.21875 471.464844 C 695.097656 470.71875 694.914062 469.988281 694.671875 469.269531 C 694.429688 468.554688 694.128906 467.863281 693.773438 467.195312 C 693.417969 466.527344 693.011719 465.894531 692.550781 465.292969 C 692.09375 464.691406 691.589844 464.132812 691.039062 463.617188 C 690.488281 463.097656 689.898438 462.628906 689.269531 462.207031 C 688.644531 461.785156 687.984375 461.417969 687.296875 461.101562 C 686.609375 460.789062 685.902344 460.53125 685.171875 460.332031 Z M 684.339844 460.332031 " fill-opacity="1" fill-rule="nonzero"/><path fill="#000000" d="M 684.339844 597.367188 L 314.847656 600.554688 C 313.933594 600.554688 313.03125 600.644531 312.140625 600.820312 C 311.246094 601 310.378906 601.261719 309.539062 601.609375 C 308.695312 601.960938 307.898438 602.386719 307.140625 602.894531 C 306.382812 603.398438 305.683594 603.972656 305.039062 604.617188 C 304.394531 605.261719 303.820312 605.960938 303.3125 606.71875 C 302.808594 607.476562 302.378906 608.277344 302.03125 609.117188 C 301.683594 609.957031 301.421875 610.824219 301.242188 611.71875 C 301.066406 612.613281 300.976562 613.515625 300.976562 614.425781 C 300.976562 615.335938 301.066406 616.238281 301.242188 617.128906 C 301.421875 618.023438 301.683594 618.890625 302.03125 619.734375 C 302.378906 620.574219 302.808594 621.375 303.3125 622.128906 C 303.820312 622.886719 304.394531 623.589844 305.039062 624.230469 C 305.683594 624.875 306.382812 625.449219 307.140625 625.957031 C 307.898438 626.464844 308.695312 626.890625 309.539062 627.238281 C 310.378906 627.585938 311.246094 627.851562 312.140625 628.027344 C 313.03125 628.207031 313.933594 628.292969 314.847656 628.292969 L 685.171875 624.132812 C 685.683594 624.273438 686.203125 624.382812 686.726562 624.460938 C 687.253906 624.542969 687.78125 624.589844 688.3125 624.609375 C 688.84375 624.628906 689.371094 624.617188 689.902344 624.574219 C 690.433594 624.535156 690.957031 624.460938 691.476562 624.359375 C 692 624.257812 692.511719 624.125 693.019531 623.964844 C 693.523438 623.804688 694.019531 623.613281 694.503906 623.394531 C 694.988281 623.175781 695.460938 622.933594 695.914062 622.660156 C 696.371094 622.386719 696.808594 622.089844 697.230469 621.769531 C 697.65625 621.445312 698.054688 621.101562 698.4375 620.730469 C 698.820312 620.363281 699.179688 619.972656 699.519531 619.5625 C 699.855469 619.152344 700.167969 618.722656 700.457031 618.277344 C 700.746094 617.832031 701.007812 617.371094 701.242188 616.894531 C 701.476562 616.417969 701.683594 615.929688 701.863281 615.429688 C 702.042969 614.929688 702.195312 614.421875 702.316406 613.90625 C 702.4375 613.386719 702.527344 612.867188 702.585938 612.335938 C 702.648438 611.808594 702.679688 611.28125 702.679688 610.75 C 702.679688 610.21875 702.648438 609.6875 702.585938 609.160156 C 702.527344 608.632812 702.433594 608.109375 702.316406 607.59375 C 702.195312 607.078125 702.042969 606.566406 701.863281 606.066406 C 701.683594 605.566406 701.476562 605.082031 701.242188 604.605469 C 701.007812 604.128906 700.746094 603.667969 700.457031 603.222656 C 700.167969 602.773438 699.855469 602.347656 699.519531 601.9375 C 699.179688 601.527344 698.820312 601.136719 698.4375 600.769531 C 698.054688 600.398438 697.65625 600.054688 697.230469 599.730469 C 696.808594 599.410156 696.371094 599.109375 695.914062 598.839844 C 695.460938 598.566406 694.988281 598.320312 694.503906 598.101562 C 694.019531 597.886719 693.523438 597.695312 693.019531 597.535156 C 692.511719 597.375 692 597.242188 691.476562 597.140625 C 690.957031 597.035156 690.433594 596.964844 689.902344 596.921875 C 689.371094 596.882812 688.84375 596.871094 688.3125 596.890625 C 687.78125 596.90625 687.253906 596.957031 686.726562 597.035156 C 686.203125 597.117188 685.683594 597.226562 685.171875 597.367188 Z M 684.339844 597.367188 " fill-opacity="1" fill-rule="nonzero"/></svg>