<svg xmlns="http://www.w3.org/2000/svg" xmlns:xlink="http://www.w3.org/1999/xlink" width="1080" zoomAndPan="magnify" viewBox="0 0 810 809.999993" height="1080" preserveAspectRatio="xMidYMid meet" version="1.0"><path fill="#000000" d="M 405 0 C 181.324219 0 0 181.324219 0 405 C 0 628.675781 181.324219 810 405 810 C 613.449219 810 784.953125 652.476562 807.359375 450 C 800.890625 450 735.835938 450 716.40625 450 C 694.453125 602.394531 563.375 720 405 720 C 231.308594 720 90 578.691406 90 405 C 90 231.308594 231.308594 90 405 90 C 503.285156 90 591.136719 135.292969 648.953125 206.046875 L 540 315 L 810 315 L 810 45 L 712.804688 142.195312 C 638.523438 55.28125 528.296875 0 405 0 Z M 405 0 " fill-opacity="1" fill-rule="nonzero"/></svg>