<svg xmlns="http://www.w3.org/2000/svg" xmlns:xlink="http://www.w3.org/1999/xlink" width="1080" zoomAndPan="magnify" viewBox="0 0 810 809.999993" height="1080" preserveAspectRatio="xMidYMid meet" version="1.0"><defs><clipPath id="baed7910fe"><path d="M 135.121094 0 L 675 0 L 675 799.5 L 135.121094 799.5 Z M 135.121094 0 " clip-rule="nonzero"/></clipPath></defs><g clip-path="url(#baed7910fe)"><path fill="#000000" d="M 208.210938 263.0625 L 625.382812 263.0625 C 639.574219 263.0625 651.785156 268.363281 661.476562 278.730469 C 671.164062 289.097656 676.054688 301.675781 674.675781 315.796875 L 631.945312 753.261719 C 629.414062 779.179688 608.695312 799.335938 582.652344 799.335938 L 250.941406 799.335938 C 224.898438 799.335938 204.179688 779.179688 201.648438 753.261719 L 158.917969 315.796875 C 157.539062 301.675781 162.429688 289.097656 172.117188 278.730469 C 181.808594 268.363281 194.019531 263.0625 208.210938 263.0625 Z M 321.941406 696.523438 L 297.238281 363.484375 C 296.578125 354.132812 288.460938 347.085938 279.109375 347.746094 C 269.753906 348.40625 262.710938 356.523438 263.367188 365.875 L 288.070312 698.914062 C 288.730469 708.265625 296.847656 715.3125 306.199219 714.652344 C 315.554688 713.992188 322.597656 705.875 321.941406 696.523438 Z M 545.523438 698.914062 L 570.222656 365.875 C 570.882812 356.523438 563.835938 348.40625 554.484375 347.746094 C 545.132812 347.085938 537.015625 354.132812 536.355469 363.484375 L 511.652344 696.523438 C 510.992188 705.875 518.039062 713.992188 527.394531 714.652344 C 536.746094 715.3125 544.863281 708.265625 545.523438 698.914062 Z M 433.796875 697.71875 L 433.796875 364.679688 C 433.796875 355.292969 426.183594 347.679688 416.796875 347.679688 C 407.40625 347.679688 399.796875 355.292969 399.796875 364.679688 L 399.796875 697.71875 C 399.796875 707.105469 407.40625 714.71875 416.796875 714.71875 C 426.183594 714.71875 433.796875 707.105469 433.796875 697.71875 Z M 157.972656 147 L 615.289062 24.460938 C 631.714844 20.058594 648.703125 29.871094 653.105469 46.296875 L 659.222656 69.121094 C 663.625 85.546875 653.816406 102.535156 637.386719 106.9375 L 180.074219 229.472656 C 163.648438 233.875 146.65625 224.066406 142.257812 207.640625 L 136.140625 184.816406 C 131.738281 168.390625 141.546875 151.402344 157.972656 147 Z M 291.390625 76.050781 L 464.269531 29.726562 L 461.769531 20.398438 C 457.90625 5.976562 442.992188 -2.636719 428.566406 1.230469 L 308.0625 33.519531 C 293.640625 37.382812 285.027344 52.300781 288.894531 66.722656 Z M 291.390625 76.050781 " fill-opacity="1" fill-rule="evenodd"/></g></svg>