<svg xmlns="http://www.w3.org/2000/svg" xmlns:xlink="http://www.w3.org/1999/xlink" width="1080" zoomAndPan="magnify" viewBox="0 0 810 809.999993" height="1080" preserveAspectRatio="xMidYMid meet" version="1.0"><defs><clipPath id="152952316e"><path d="M 31 0 L 779.382812 0 L 779.382812 810 L 31 810 Z M 31 0 " clip-rule="nonzero"/></clipPath></defs><g clip-path="url(#152952316e)"><path fill="#000000" d="M 572.238281 0 L 124.644531 0 C 56.050781 0 31.152344 55.890625 31.152344 93.460938 L 31.152344 716.539062 C 31.152344 785.109375 87.058594 810 124.644531 810 L 685.617188 810 C 754.210938 810 779.113281 754.109375 779.113281 716.539062 L 779.113281 172.34375 Z M 218.140625 62.308594 L 373.964844 62.308594 L 373.964844 186.921875 L 467.460938 186.921875 L 467.460938 62.308594 L 529.792969 62.308594 L 529.792969 218.078125 C 529.792969 243.15625 512.652344 248.855469 498.625 249.230469 L 249.304688 249.230469 C 224.21875 249.230469 218.515625 232.097656 218.140625 218.078125 Z M 592.121094 747.691406 L 218.140625 747.691406 L 218.140625 498.460938 L 592.121094 498.460938 Z M 716.78125 716.164062 C 716.40625 730.558594 710.734375 747.691406 685.617188 747.691406 L 654.453125 747.691406 L 654.453125 436.152344 L 155.8125 436.152344 L 155.8125 747.691406 L 125.019531 747.691406 C 110.621094 747.320312 93.480469 741.648438 93.480469 716.539062 L 93.480469 93.835938 C 93.855469 79.441406 99.558594 62.308594 124.644531 62.308594 L 155.8125 62.308594 L 155.8125 218.078125 C 155.8125 255.648438 180.710938 311.539062 249.304688 311.539062 L 498.625 311.539062 C 536.210938 311.539062 592.121094 286.648438 592.121094 218.078125 L 592.121094 97.667969 L 716.78125 201.503906 Z M 529.792969 623.078125 L 280.472656 623.078125 L 280.472656 560.769531 L 529.792969 560.769531 Z M 529.792969 623.078125 " fill-opacity="1" fill-rule="nonzero"/></g></svg>