<svg xmlns="http://www.w3.org/2000/svg" xmlns:xlink="http://www.w3.org/1999/xlink" width="1080" zoomAndPan="magnify" viewBox="0 0 810 809.999993" height="1080" preserveAspectRatio="xMidYMid meet" version="1.0"><path fill="#000000" d="M 177.191406 443.019531 C 130.351562 443.019531 85.167969 443.023438 39.984375 443.019531 C 13.09375 443.015625 12.714844 442.625 12.707031 415.4375 C 12.707031 405.429688 13.070312 395.402344 12.625 385.410156 C 12.011719 371.6875 18.53125 366.773438 31.765625 366.871094 C 79.609375 367.214844 127.457031 367.003906 177.191406 367.003906 L 177.191406 349.015625 C 177.191406 295.269531 176.714844 241.515625 177.667969 187.789062 C 177.820312 178.960938 182.183594 168.351562 188.15625 161.820312 C 208.417969 139.695312 229.875 118.59375 251.8125 98.109375 C 257.277344 93.007812 266.269531 89.078125 273.660156 89.039062 C 386.417969 88.472656 499.179688 88.617188 611.941406 88.675781 C 630.167969 88.683594 632.746094 91.359375 632.761719 110.015625 C 632.816406 194.832031 632.785156 279.648438 632.785156 367 L 649.863281 367 C 692.015625 367 734.167969 367.011719 776.324219 367.03125 C 794.621094 367.070312 797.121094 369.707031 797.25 388.269531 C 797.332031 399.863281 796.722656 411.488281 797.398438 423.039062 C 798.292969 438.347656 791.269531 443.386719 776.589844 443.210938 C 732.335938 442.679688 688.070312 443.011719 643.8125 443.042969 C 640.734375 443.046875 637.65625 443.332031 632.785156 443.574219 L 632.785156 461.039062 C 632.785156 540.078125 632.78125 619.113281 632.769531 698.152344 C 632.761719 719.585938 630.9375 721.359375 609.035156 721.363281 C 473.09375 721.382812 337.148438 721.382812 201.203125 721.363281 C 178.695312 721.359375 177.199219 719.824219 177.195312 696.851562 C 177.179688 613.089844 177.191406 529.328125 177.191406 443.019531 Z M 203.753906 443.691406 L 203.753906 694.695312 L 606.5 694.695312 L 606.5 443.691406 Z M 606.667969 115.175781 L 278.511719 115.175781 C 278.511719 134.140625 277.960938 152.015625 278.679688 169.835938 C 279.292969 184.992188 272.839844 190.710938 258.007812 190.136719 C 239.824219 189.425781 221.59375 189.964844 203.902344 189.964844 L 203.902344 366.160156 L 606.667969 366.160156 Z M 771.21875 393.519531 L 38.90625 393.519531 L 38.90625 416.757812 L 771.21875 416.757812 Z M 251.703125 163.988281 L 251.703125 139.855469 L 222.210938 163.988281 Z M 251.703125 163.988281 " fill-opacity="1" fill-rule="nonzero"/><path fill="#000000" d="M 76.066406 76.085938 C 76.066406 97.082031 75.796875 115.496094 76.160156 133.898438 C 76.410156 146.46875 71.121094 152.417969 58.316406 152.078125 C 44.640625 151.71875 30.949219 151.800781 17.269531 152.054688 C 5.394531 152.277344 -0.0507812 146.898438 0 134.945312 C 0.175781 95.476562 0.1875 56.007812 0.03125 16.535156 C 0.00390625 5.449219 5.078125 0.0351562 16.277344 0.0585938 C 55.75 0.140625 95.21875 0.203125 134.6875 0.0117188 C 146.515625 -0.046875 152.234375 5.046875 152.03125 17.046875 C 151.800781 30.726562 151.699219 44.421875 152.066406 58.09375 C 152.40625 70.738281 146.855469 76.421875 134.117188 76.175781 C 115.308594 75.820312 96.488281 76.085938 76.066406 76.085938 Z M 26.386719 25.824219 L 26.386719 125.445312 L 50.667969 125.445312 C 50.667969 105.957031 51.03125 87.601562 50.546875 69.269531 C 50.191406 55.746094 56.101562 50.21875 69.46875 50.566406 C 88.199219 51.046875 106.957031 50.6875 125.339844 50.6875 L 125.339844 25.824219 Z M 26.386719 25.824219 " fill-opacity="1" fill-rule="nonzero"/><path fill="#000000" d="M 733.917969 76.089844 C 713.992188 76.089844 695.6875 75.632812 677.414062 76.238281 C 663.117188 76.710938 657.222656 70.660156 657.863281 56.5 C 658.457031 43.371094 658.144531 30.1875 657.953125 17.035156 C 657.789062 6.164062 662.316406 0.078125 673.710938 0.0859375 C 713.707031 0.105469 753.707031 0.0976562 793.703125 0.0625 C 804.902344 0.0390625 809.96875 5.480469 809.941406 16.554688 C 809.847656 56.027344 809.855469 95.496094 809.96875 134.96875 C 810.023438 146.929688 804.527344 152.273438 792.667969 152.058594 C 778.464844 151.800781 764.25 151.921875 750.042969 152.015625 C 738.816406 152.089844 733.792969 146.503906 733.875 135.453125 C 734.023438 116.523438 733.917969 97.589844 733.917969 76.089844 Z M 783.816406 26.5625 L 684.132812 26.5625 L 684.132812 50.6875 C 703.09375 50.6875 721.375 51.140625 739.621094 50.542969 C 753.667969 50.082031 759.914062 55.609375 759.457031 69.976562 C 758.859375 88.664062 759.308594 107.386719 759.308594 125.777344 L 783.816406 125.777344 Z M 783.816406 26.5625 " fill-opacity="1" fill-rule="nonzero"/><path fill="#000000" d="M 76.066406 733.929688 C 96.863281 733.929688 115.253906 734.210938 133.632812 733.828125 C 146.054688 733.574219 152.375 738.46875 152.054688 751.425781 C 151.71875 765.097656 151.773438 778.792969 152.042969 792.472656 C 152.273438 804.203125 147.257812 810.035156 135.171875 809.988281 C 95.699219 809.832031 56.230469 809.828125 16.757812 809.984375 C 4.609375 810.027344 -0.0703125 804.046875 -0.0117188 792.367188 C 0.191406 753.425781 0.191406 714.480469 -0.0117188 675.535156 C -0.0742188 663.835938 4.65625 657.789062 16.792969 657.972656 C 31 658.183594 45.207031 658.1875 59.421875 657.976562 C 71.601562 657.804688 76.304688 663.984375 76.136719 675.632812 C 75.867188 694.460938 76.066406 713.300781 76.066406 733.929688 Z M 26.589844 684.152344 L 26.589844 783.300781 L 125.691406 783.300781 L 125.691406 759.332031 C 106.535156 759.332031 88.226562 758.875 69.953125 759.476562 C 55.582031 759.949219 50.0625 753.683594 50.523438 739.640625 C 51.117188 721.394531 50.667969 703.113281 50.667969 684.152344 Z M 26.589844 684.152344 " fill-opacity="1" fill-rule="nonzero"/><path fill="#000000" d="M 733.902344 733.9375 C 733.902344 714.867188 733.855469 697.609375 733.917969 680.347656 C 733.984375 660.015625 735.992188 658.082031 756.875 658.015625 C 768.980469 657.976562 781.085938 658.152344 793.191406 657.980469 C 804.167969 657.828125 809.933594 662.683594 809.921875 673.976562 C 809.875 713.972656 809.875 753.972656 809.921875 793.96875 C 809.933594 805.253906 804.15625 810.007812 793.183594 809.976562 C 753.714844 809.855469 714.242188 809.855469 674.769531 809.976562 C 663.820312 810.007812 657.949219 805.339844 657.992188 794.023438 C 658.054688 779.289062 658.054688 764.550781 657.992188 749.816406 C 657.945312 738.488281 663.835938 733.789062 674.78125 733.890625 C 693.6875 734.058594 712.601562 733.9375 733.902344 733.9375 Z M 684.335938 759.328125 L 684.335938 783.445312 L 783.332031 783.445312 L 783.332031 684.261719 L 759.308594 684.261719 C 759.308594 703.363281 758.855469 721.664062 759.453125 739.933594 C 759.917969 754.214844 753.84375 759.933594 739.714844 759.472656 C 721.460938 758.878906 703.171875 759.328125 684.335938 759.328125 Z M 684.335938 759.328125 " fill-opacity="1" fill-rule="nonzero"/><path fill="#000000" d="M 404.792969 291.1875 C 356.871094 291.1875 308.953125 291.199219 261.03125 291.226562 C 251.671875 291.242188 241.375 291.246094 241.023438 279.070312 C 240.640625 265.648438 251.507812 265.746094 261.410156 265.75 C 357.25 265.800781 453.089844 265.800781 548.929688 265.746094 C 558.28125 265.738281 568.601562 265.703125 568.941406 277.886719 C 569.320312 291.28125 558.464844 291.234375 548.550781 291.21875 C 500.632812 291.144531 452.710938 291.136719 404.792969 291.1875 Z M 404.792969 291.1875 " fill-opacity="1" fill-rule="nonzero"/><path fill="#000000" d="M 327.476562 341.679688 C 304.332031 341.679688 281.183594 341.613281 258.035156 341.714844 C 248.53125 341.753906 239.492188 338.828125 241.507812 328.28125 C 242.4375 323.40625 252.199219 316.925781 258.066406 316.808594 C 305.394531 315.875 352.734375 315.875 400.085938 316.808594 C 405.949219 316.925781 415.714844 323.425781 416.636719 328.296875 C 418.625 338.835938 409.582031 341.757812 400.078125 341.714844 C 375.875 341.613281 351.675781 341.679688 327.476562 341.679688 Z M 327.476562 341.679688 " fill-opacity="1" fill-rule="nonzero"/><path fill="#000000" d="M 290.992188 240.523438 C 278.910156 240.519531 266.652344 241.695312 254.820312 239.972656 C 249.660156 239.222656 245.367188 232.53125 240.679688 228.539062 C 245.445312 224.101562 250.007812 216.101562 255.003906 215.824219 C 279.152344 214.539062 303.300781 214.519531 327.449219 215.769531 C 332.324219 216.007812 336.851562 223.203125 341.542969 227.195312 C 336.777344 231.636719 332.5 239.035156 327.144531 239.921875 C 315.382812 241.867188 303.078125 240.523438 290.992188 240.523438 Z M 290.992188 240.523438 " fill-opacity="1" fill-rule="nonzero"/><path fill="#000000" d="M 449.148438 348.191406 C 440.902344 339.519531 431.984375 334.464844 431.28125 328.449219 C 430.035156 317.832031 439.910156 316.296875 449.023438 316.304688 C 458.707031 316.316406 468.863281 317.703125 467.304688 329.53125 C 466.5625 335.195312 457.714844 339.789062 449.148438 348.191406 Z M 449.148438 348.191406 " fill-opacity="1" fill-rule="nonzero"/></svg>