<svg xmlns="http://www.w3.org/2000/svg" xmlns:xlink="http://www.w3.org/1999/xlink" width="1080" zoomAndPan="magnify" viewBox="0 0 810 809.999993" height="1080" preserveAspectRatio="xMidYMid meet" version="1.0"><defs><clipPath id="b112d01fd0"><path d="M 0 117.449219 L 810 117.449219 L 810 692.699219 L 0 692.699219 Z M 0 117.449219 " clip-rule="nonzero"/></clipPath></defs><g clip-path="url(#b112d01fd0)"><path fill="#000000" d="M 51.734375 170.175781 C 52.207031 163.324219 52.316406 157.296875 52.058594 152.101562 C 51.351562 138.75 57.582031 135.328125 70.519531 131.75 C 101.179688 123.265625 132.726562 118.59375 165.160156 117.75 C 248.308594 115.535156 333.785156 130.980469 403.050781 179.449219 C 403.636719 179.859375 404.414062 179.871094 405 179.480469 C 483.894531 128.617188 576.199219 112.609375 668.027344 118.664062 C 689.609375 120.082031 711.230469 123.800781 732.890625 129.828125 C 748.457031 134.140625 760.269531 135.914062 757.792969 154.226562 C 757.671875 154.976562 757.777344 160.347656 758.113281 170.355469 C 758.148438 171.363281 758.816406 172.230469 759.769531 172.511719 C 767.84375 174.875 781.273438 180.269531 800.058594 188.695312 C 806.125 191.414062 809.144531 196.464844 809.125 203.851562 C 808.714844 355.554688 808.878906 504.441406 809.628906 650.511719 C 809.6875 662.089844 800.5 663.597656 790.371094 663.597656 C 673.777344 663.597656 565.359375 663.527344 465.113281 663.390625 C 464.042969 663.390625 463.015625 663.863281 462.308594 664.6875 C 459.710938 667.730469 457.847656 671.511719 454.332031 674.464844 C 424.203125 699.6875 373.226562 700.28125 349.59375 665.191406 C 348.914062 664.175781 347.761719 663.5625 346.523438 663.5625 C 191.90625 663.503906 82.875 663.59375 19.429688 663.832031 C 8.707031 663.890625 0.320312 661.761719 0.378906 649.800781 C 0.949219 513.183594 1 364.257812 0.527344 203.023438 C 0.464844 190.027344 8.941406 188.34375 20.789062 183.53125 C 27.246094 180.910156 36.945312 177.285156 49.882812 172.660156 C 50.933594 172.28125 51.664062 171.304688 51.734375 170.175781 Z M 390.292969 590.105469 L 390.292969 205.238281 C 390.292969 204.242188 389.792969 203.308594 388.960938 202.757812 C 299.964844 143.503906 184.09375 131.957031 82.042969 157.269531 C 80.964844 157.527344 80.210938 158.496094 80.210938 159.605469 L 80.210938 548.960938 C 80.207031 549.777344 80.859375 550.441406 81.679688 550.445312 C 81.832031 550.445312 81.984375 550.425781 82.132812 550.378906 C 91.679688 547.402344 101.960938 545.039062 112.96875 543.289062 C 183.757812 532.023438 253.714844 537.703125 322.828125 560.332031 C 346.28125 568.03125 368.511719 578.101562 389.523438 590.550781 C 389.757812 590.695312 390.070312 590.625 390.214844 590.390625 C 390.265625 590.300781 390.296875 590.207031 390.292969 590.105469 Z M 729.9375 549.609375 L 729.9375 159.101562 C 729.9375 158.367188 729.441406 157.71875 728.726562 157.507812 C 671.867188 141.117188 610.992188 141.46875 553.128906 151.421875 C 504.335938 159.851562 459.921875 176.894531 419.890625 202.550781 C 418.785156 203.25 418.117188 204.464844 418.117188 205.773438 L 418.117188 589.992188 C 418.109375 590.367188 418.410156 590.675781 418.785156 590.683594 C 418.914062 590.6875 419.039062 590.648438 419.148438 590.582031 C 429.980469 583.53125 440.898438 577.683594 451.90625 573.035156 C 542.011719 534.992188 634.21875 527.5625 728.519531 550.738281 C 729.140625 550.882812 729.757812 550.503906 729.90625 549.882812 C 729.929688 549.789062 729.9375 549.703125 729.9375 549.609375 Z M 470.335938 596.429688 C 470.070312 596.765625 470.132812 597.246094 470.46875 597.503906 C 470.597656 597.605469 470.761719 597.664062 470.925781 597.667969 L 780.386719 597.667969 C 780.777344 597.667969 781.09375 597.351562 781.09375 596.957031 L 781.09375 210.789062 C 781.09375 210.34375 780.808594 209.945312 780.386719 209.785156 L 758.230469 201.191406 C 758.039062 201.109375 757.8125 201.203125 757.730469 201.398438 C 757.710938 201.445312 757.703125 201.496094 757.703125 201.542969 C 757.800781 322.683594 757.832031 445.351562 757.789062 569.542969 C 757.761719 584.816406 747.097656 587.089844 733.894531 582.335938 C 709.21875 573.433594 683.167969 568.027344 655.738281 566.117188 C 591.40625 561.644531 530.226562 571.234375 472.195312 594.886719 C 471.566406 595.144531 470.945312 595.660156 470.335938 596.429688 Z M 338.660156 596.632812 C 338.050781 595.867188 337.429688 595.355469 336.800781 595.097656 C 278.925781 571.507812 217.914062 561.925781 153.757812 566.355469 C 126.40625 568.246094 100.425781 573.625 75.8125 582.484375 C 62.636719 587.238281 52.003906 584.964844 52.003906 569.722656 C 52.003906 445.882812 52.070312 323.558594 52.210938 202.753906 C 52.210938 202.542969 52.035156 202.371094 51.824219 202.371094 C 51.773438 202.371094 51.722656 202.378906 51.679688 202.398438 L 29.585938 210.964844 C 29.160156 211.125 28.878906 211.523438 28.878906 211.96875 L 28.761719 597.070312 C 28.777344 597.441406 29.074219 597.734375 29.441406 597.75 L 338.074219 597.867188 C 338.5 597.859375 338.835938 597.511719 338.828125 597.085938 C 338.820312 596.925781 338.761719 596.765625 338.660156 596.632812 Z M 405 664.421875 C 415.867188 664.421875 430.667969 660.257812 437.222656 650.863281 C 439.492188 647.613281 441.546875 644.117188 443.398438 640.378906 C 444.769531 637.59375 447.597656 635.832031 450.695312 635.832031 L 780.121094 635.832031 C 780.941406 635.832031 781.597656 635.171875 781.597656 634.355469 L 781.597656 627.324219 C 781.597656 626.347656 780.804688 625.554688 779.828125 625.554688 L 420.597656 625.789062 C 419.992188 625.785156 419.386719 625.90625 418.824219 626.144531 C 414.160156 628.183594 410.941406 631.550781 405.003906 631.550781 C 399.066406 631.550781 395.847656 628.183594 391.183594 626.171875 C 390.621094 625.925781 390.015625 625.792969 389.410156 625.789062 L 30.179688 625.726562 C 29.203125 625.726562 28.410156 626.519531 28.410156 627.5 L 28.410156 634.527344 C 28.410156 635.34375 29.066406 636.003906 29.886719 636.003906 L 359.3125 635.859375 C 362.410156 635.859375 365.238281 637.625 366.609375 640.40625 C 368.476562 644.148438 370.546875 647.640625 372.8125 650.890625 C 379.363281 660.253906 394.160156 664.421875 405 664.421875 Z M 405 664.421875 " fill-opacity="1" fill-rule="nonzero"/></g></svg>