<svg xmlns="http://www.w3.org/2000/svg" xmlns:xlink="http://www.w3.org/1999/xlink" width="1080" zoomAndPan="magnify" viewBox="0 0 810 809.999993" height="1080" preserveAspectRatio="xMidYMid meet" version="1.0"><defs><g/><clipPath id="ccde8d324d"><path d="M 415.199219 142.96875 L 661.949219 142.96875 L 661.949219 516.46875 L 415.199219 516.46875 Z M 415.199219 142.96875 " clip-rule="nonzero"/></clipPath><clipPath id="11ef0eeb28"><path d="M 102 236.769531 L 708 236.769531 L 708 667.269531 L 102 667.269531 Z M 102 236.769531 " clip-rule="nonzero"/></clipPath></defs><g clip-path="url(#ccde8d324d)"><path fill="#000000" d="M 788.6875 329.714844 C 601.941406 329.714844 601.941406 329.714844 601.941406 516.460938 C 601.941406 329.714844 601.941406 329.714844 415.199219 329.714844 C 601.941406 329.714844 601.941406 329.714844 601.941406 142.96875 C 601.941406 329.714844 601.941406 329.714844 788.6875 329.714844 Z M 788.6875 329.714844 " fill-opacity="1" fill-rule="nonzero"/></g><g clip-path="url(#11ef0eeb28)"><path fill="#000000" d="M 140.707031 276.21875 C 141.0625 271.089844 141.144531 266.582031 140.949219 262.695312 C 140.421875 252.703125 145.082031 250.144531 154.761719 247.46875 C 177.699219 241.121094 201.300781 237.625 225.566406 236.992188 C 287.773438 235.335938 351.722656 246.894531 403.539062 283.15625 C 403.980469 283.460938 404.5625 283.46875 405 283.175781 C 464.023438 245.125 533.078125 233.148438 601.78125 237.679688 C 617.929688 238.738281 634.101562 241.523438 650.308594 246.03125 C 661.953125 249.257812 670.792969 250.582031 668.9375 264.285156 C 668.847656 264.84375 668.929688 268.863281 669.179688 276.351562 C 669.203125 277.105469 669.703125 277.75 670.417969 277.964844 C 676.457031 279.730469 686.503906 283.765625 700.558594 290.074219 C 705.097656 292.105469 707.359375 295.882812 707.34375 301.410156 C 707.035156 414.90625 707.15625 526.292969 707.71875 635.574219 C 707.761719 644.238281 700.890625 645.363281 693.3125 645.363281 C 606.082031 645.363281 524.96875 645.3125 449.972656 645.210938 C 449.171875 645.210938 448.402344 645.5625 447.875 646.179688 C 445.929688 648.457031 444.539062 651.285156 441.90625 653.496094 C 419.367188 672.367188 381.226562 672.808594 363.546875 646.558594 C 363.039062 645.796875 362.175781 645.339844 361.25 645.339844 C 245.574219 645.292969 164.003906 645.359375 116.539062 645.539062 C 108.515625 645.585938 102.242188 643.992188 102.289062 635.042969 C 102.714844 532.835938 102.75 421.414062 102.394531 300.792969 C 102.351562 291.066406 108.691406 289.808594 117.554688 286.207031 C 122.386719 284.246094 129.644531 281.535156 139.320312 278.074219 C 140.109375 277.792969 140.652344 277.0625 140.707031 276.21875 Z M 393.996094 590.382812 L 393.996094 302.449219 C 393.996094 301.703125 393.625 301.003906 393 300.59375 C 326.417969 256.261719 239.730469 247.621094 163.382812 266.558594 C 162.578125 266.753906 162.011719 267.476562 162.011719 268.308594 L 162.011719 559.601562 C 162.007812 560.210938 162.496094 560.707031 163.109375 560.710938 C 163.222656 560.710938 163.339844 560.695312 163.449219 560.660156 C 170.59375 558.433594 178.285156 556.667969 186.519531 555.355469 C 239.480469 546.929688 291.816406 551.179688 343.523438 568.105469 C 361.070312 573.867188 377.699219 581.402344 393.421875 590.714844 C 393.597656 590.824219 393.828125 590.773438 393.9375 590.597656 C 393.976562 590.53125 394 590.457031 393.996094 590.382812 Z M 648.097656 560.085938 L 648.097656 267.929688 C 648.097656 267.378906 647.726562 266.894531 647.191406 266.738281 C 604.65625 254.476562 559.109375 254.738281 515.820312 262.1875 C 479.316406 268.492188 446.085938 281.242188 416.140625 300.4375 C 415.3125 300.960938 414.8125 301.871094 414.8125 302.847656 L 414.8125 590.296875 C 414.808594 590.578125 415.03125 590.808594 415.3125 590.8125 C 415.410156 590.816406 415.503906 590.789062 415.585938 590.738281 C 423.6875 585.464844 431.855469 581.085938 440.089844 577.613281 C 507.503906 549.152344 576.488281 543.589844 647.039062 560.929688 C 647.5 561.039062 647.964844 560.753906 648.078125 560.292969 C 648.089844 560.222656 648.097656 560.15625 648.097656 560.085938 Z M 453.878906 595.113281 C 453.683594 595.363281 453.726562 595.722656 453.980469 595.917969 C 454.078125 595.992188 454.199219 596.035156 454.320312 596.039062 L 685.839844 596.039062 C 686.132812 596.039062 686.371094 595.804688 686.371094 595.507812 L 686.371094 306.601562 C 686.371094 306.269531 686.160156 305.96875 685.839844 305.851562 L 669.265625 299.421875 C 669.121094 299.359375 668.953125 299.429688 668.890625 299.574219 C 668.875 299.609375 668.871094 299.648438 668.871094 299.683594 C 668.941406 390.316406 668.96875 482.085938 668.9375 575 C 668.914062 586.425781 660.9375 588.125 651.058594 584.570312 C 632.597656 577.910156 613.109375 573.863281 592.589844 572.4375 C 544.457031 569.089844 498.6875 576.265625 455.273438 593.960938 C 454.800781 594.152344 454.335938 594.539062 453.878906 595.113281 Z M 355.367188 595.265625 C 354.910156 594.691406 354.449219 594.308594 353.976562 594.117188 C 310.679688 576.46875 265.03125 569.300781 217.035156 572.613281 C 196.570312 574.027344 177.132812 578.050781 158.71875 584.679688 C 148.863281 588.238281 140.90625 586.535156 140.90625 575.132812 C 140.90625 482.484375 140.960938 390.96875 141.0625 300.589844 C 141.0625 300.429688 140.933594 300.300781 140.773438 300.300781 C 140.734375 300.300781 140.699219 300.308594 140.664062 300.324219 L 124.136719 306.730469 C 123.820312 306.851562 123.609375 307.148438 123.609375 307.480469 L 123.519531 595.59375 C 123.53125 595.871094 123.753906 596.089844 124.027344 596.101562 L 354.929688 596.191406 C 355.246094 596.183594 355.5 595.925781 355.492188 595.605469 C 355.488281 595.484375 355.445312 595.363281 355.367188 595.265625 Z M 405 645.980469 C 413.128906 645.980469 424.203125 642.867188 429.109375 635.835938 C 430.804688 633.40625 432.339844 630.792969 433.726562 627.992188 C 434.753906 625.910156 436.871094 624.589844 439.1875 624.589844 L 685.644531 624.589844 C 686.253906 624.589844 686.75 624.097656 686.75 623.488281 L 686.75 618.226562 C 686.75 617.496094 686.15625 616.902344 685.421875 616.902344 L 416.667969 617.078125 C 416.214844 617.074219 415.765625 617.164062 415.34375 617.34375 C 411.851562 618.871094 409.445312 621.390625 405.003906 621.390625 C 400.5625 621.390625 398.152344 618.871094 394.660156 617.367188 C 394.242188 617.179688 393.789062 617.082031 393.335938 617.078125 L 124.582031 617.03125 C 123.851562 617.03125 123.257812 617.625 123.257812 618.359375 L 123.257812 623.617188 C 123.257812 624.226562 123.75 624.722656 124.363281 624.722656 L 370.820312 624.613281 C 373.136719 624.613281 375.25 625.933594 376.277344 628.015625 C 377.675781 630.816406 379.222656 633.429688 380.917969 635.859375 C 385.820312 642.863281 396.890625 645.980469 405 645.980469 Z M 405 645.980469 " fill-opacity="1" fill-rule="nonzero"/></g><g fill="#000000" fill-opacity="1"><g transform="translate(176.206591, 376.414556)"><g><path d="M 93.453125 -23.9375 C 95.648438 -18.78125 97.78125 -14.472656 99.84375 -11.015625 C 101.914062 -7.554688 104.429688 -4.007812 107.390625 -0.375 L 107.390625 0 L 78.640625 0 C 78.898438 -0.925781 79.03125 -2.066406 79.03125 -3.421875 C 79.03125 -5.617188 78.648438 -8.066406 77.890625 -10.765625 C 77.128906 -13.460938 75.816406 -17.050781 73.953125 -21.53125 L 71.671875 -27.09375 L 31.15625 -27.09375 L 28.5 -21.15625 C 26.71875 -17.09375 25.425781 -13.671875 24.625 -10.890625 C 23.820312 -8.109375 23.421875 -5.617188 23.421875 -3.421875 C 23.421875 -2.316406 23.507812 -1.175781 23.6875 0 L -4.6875 0 L -4.6875 -0.375 C -2.070312 -3.414062 0.332031 -6.75 2.53125 -10.375 C 4.726562 -14.007812 7.132812 -18.65625 9.75 -24.3125 L 34.703125 -78.140625 C 39.679688 -88.773438 43.015625 -97.300781 44.703125 -103.71875 L 61.046875 -103.71875 C 62.472656 -97.8125 65.59375 -89.285156 70.40625 -78.140625 Z M 37.859375 -42.171875 L 65.59375 -42.171875 L 52.296875 -74.71875 Z M 37.859375 -42.171875 "/></g></g></g></svg>